<?xml version="1.0" standalone="no"?>
<!DOCTYPE svg PUBLIC "-//W3C//DTD SVG 1.1//EN" "http://www.w3.org/Graphics/SVG/1.1/DTD/svg11.dtd" >
<svg xmlns="http://www.w3.org/2000/svg">
<metadata>Generated by IcoMoon</metadata>
<defs>
<font id="icomoon" horiz-adv-x="1024">
<font-face units-per-em="1024" ascent="960" descent="-64" />
<missing-glyph horiz-adv-x="1024" />
<glyph unicode="&#x20;" horiz-adv-x="512" d="" />
<glyph unicode="&#xe900;" glyph-name="t1" d="M523.601 825.928v-373.105l263.788-263.807c21.451 22.792 40.075 48.259 55.368 75.708 31.045 55.742 47.451 119.12 47.451 183.283 0 6.317-0.168 12.81-0.495 19.287-0.061 1.28-0.175 2.553-0.274 3.825l-0.343 4.603c-0.236 3.551-0.472 7.094-0.823 10.607-0.16 1.585-0.366 3.14-0.579 4.702l-0.678 5.41c-0.343 2.903-0.686 5.791-1.12 8.657-0.259 1.715-0.572 3.414-0.884 5.106l-0.96 5.426c-0.457 2.652-0.907 5.311-1.44 7.933-0.366 1.768-0.77 3.513-1.181 5.266l-1.273 5.555c-0.549 2.454-1.097 4.907-1.715 7.338-0.457 1.776-0.968 3.536-1.471 5.288l-1.539 5.464c-0.655 2.37-1.303 4.725-2.027 7.056-0.564 1.829-1.181 3.643-1.798 5.441l-1.692 5.045c-0.77 2.324-1.539 4.648-2.378 6.95-0.678 1.859-1.402 3.688-2.134 5.525l-1.852 4.74c-0.876 2.278-1.753 4.549-2.698 6.797-0.762 1.814-1.57 3.589-2.378 5.365l-2.118 4.732c-0.975 2.195-1.951 4.397-2.987 6.553-0.892 1.875-1.836 3.711-2.774 5.54l-2.134 4.199c-1.090 2.164-2.187 4.336-3.338 6.462-0.998 1.867-2.050 3.696-3.094 5.525l-2.156 3.78c-1.227 2.164-2.454 4.328-3.734 6.454-1.113 1.844-2.278 3.673-3.444 5.487l-2.179 3.437c-1.349 2.126-2.69 4.26-4.092 6.355-1.174 1.753-2.385 3.467-3.604 5.182l-2.454 3.49c-1.433 2.035-2.858 4.077-4.344 6.073-1.288 1.745-2.621 3.46-3.962 5.159l-2.355 3.040c-1.577 2.027-3.147 4.062-4.778 6.058-1.448 1.776-2.941 3.513-4.435 5.243l-2.225 2.599c-1.669 1.958-3.345 3.924-5.067 5.837-1.463 1.623-2.957 3.208-4.45 4.793l-2.69 2.858c-1.73 1.836-3.46 3.673-5.235 5.464-1.577 1.6-3.193 3.155-4.808 4.717l-1.814 1.753c-2.096 2.035-4.183 4.054-6.325 6.035-1.745 1.6-3.528 3.162-5.311 4.725l-1.852 1.631c-2.118 1.859-4.229 3.719-6.393 5.54-1.92 1.6-3.879 3.162-5.837 4.725l-0.953 0.754c-2.56 2.050-4.915 3.932-7.315 5.753-2.187 1.661-4.42 3.277-6.645 4.885l-0.419 0.305c-2.652 1.913-5.083 3.673-7.574 5.38-2.339 1.616-4.732 3.17-7.117 4.725-2.797 1.836-5.403 3.528-8.039 5.167-2.484 1.532-4.991 3.002-7.506 4.481-2.705 1.593-5.41 3.178-8.161 4.694-2.545 1.41-5.113 2.766-7.696 4.115-2.789 1.463-5.57 2.919-8.397 4.305-2.621 1.288-5.266 2.53-7.917 3.764-2.865 1.326-5.738 2.644-8.649 3.909-2.675 1.166-5.372 2.271-8.077 3.376-2.949 1.196-5.906 2.378-8.885 3.505-2.736 1.029-5.494 2.004-8.26 2.972-3.025 1.074-6.058 2.111-9.114 3.094-2.781 0.907-5.586 1.745-8.405 2.583-3.094 0.914-6.203 1.814-9.342 2.659-2.827 0.762-5.669 1.471-8.519 2.164-3.178 0.777-6.37 1.516-9.579 2.218-2.858 0.61-5.738 1.189-8.626 1.737-3.254 0.625-6.523 1.227-9.815 1.76-2.88 0.48-5.784 0.907-8.695 1.311-3.33 0.465-6.675 0.899-10.036 1.288-2.903 0.32-5.837 0.61-8.763 0.876-3.406 0.305-6.82 0.564-10.257 0.785-2.919 0.175-5.86 0.32-8.801 0.434-1.097 0.046-2.21 0.069-3.322 0.091M476.307 373.453c3.124 0 6.043-1.219 8.215-3.414l243.602-243.59c2.515-2.515 3.734-5.99 3.338-9.518-0.396-3.513-2.339-6.63-5.327-8.542-64.086-40.456-138.131-61.846-214.15-61.846-188.98 0-350.018 128.6-391.601 312.737-0.785 3.429 0.046 7.011 2.278 9.807 2.21 2.774 5.517 4.366 9.068 4.366h344.577M511.985 69.784c66.517 0 131.898 17.527 189.247 50.705l-229.748 229.721h-324.947c21.527-81.095 67.621-150.798 133.391-201.702 66.555-51.506 146.795-78.725 232.057-78.725zM500.367 459.635v366.3c-1.067-0.023-2.134-0.046-3.193-0.091-2.865-0.107-5.723-0.251-8.58-0.427-3.414-0.206-6.82-0.465-10.203-0.762-2.85-0.251-5.692-0.533-8.519-0.838-3.345-0.381-6.675-0.808-9.998-1.265-2.827-0.389-5.647-0.808-8.458-1.257-3.277-0.533-6.538-1.113-9.792-1.73-2.797-0.518-5.578-1.074-8.352-1.661-3.216-0.686-6.409-1.417-9.594-2.187-2.759-0.663-5.509-1.341-8.245-2.057-3.147-0.838-6.279-1.722-9.396-2.637-2.705-0.793-5.41-1.593-8.085-2.438-3.094-0.975-6.149-2.019-9.198-3.071-2.659-0.922-5.311-1.852-7.94-2.82-3.018-1.12-6.005-2.301-8.984-3.498-2.606-1.044-5.205-2.080-7.773-3.178-2.941-1.265-5.852-2.576-8.748-3.902l-0.709-0.32c-2.309-1.059-4.61-2.118-6.896-3.223-2.858-1.395-5.692-2.835-8.512-4.29l-0.556-0.29c-2.301-1.189-4.595-2.37-6.866-3.612-2.781-1.516-5.517-3.086-8.253-4.671-2.423-1.387-4.839-2.781-7.224-4.229-2.69-1.638-5.342-3.338-8.001-5.037l-0.724-0.465c-2.111-1.356-4.214-2.713-6.287-4.107-2.606-1.753-5.151-3.559-7.704-5.372l-0.411-0.29c-2.149-1.532-4.305-3.056-6.424-4.626-2.355-1.753-4.664-3.566-6.98-5.38l-1.212-0.945c-1.951-1.524-3.902-3.040-5.814-4.61-2.187-1.791-4.328-3.635-6.47-5.479l-1.897-1.631c-1.715-1.471-3.437-2.957-5.113-4.465-1.981-1.783-3.924-3.62-5.86-5.449l-2.141-2.019c-1.646-1.562-3.292-3.109-4.9-4.702-1.844-1.814-3.627-3.673-5.418-5.525l-2.362-2.454c-1.539-1.593-3.079-3.178-4.572-4.801-1.684-1.821-3.315-3.688-4.945-5.555l-2.248-2.545c-1.524-1.73-3.056-3.46-4.534-5.228-1.623-1.936-3.208-3.917-4.785-5.906l-2.118-2.637c-1.417-1.768-2.827-3.528-4.199-5.334-1.471-1.92-2.888-3.879-4.305-5.845l-2.149-2.957c-1.349-1.844-2.705-3.696-4.008-5.578-1.326-1.928-2.614-3.894-3.894-5.86l-2.271-3.452c-1.219-1.844-2.438-3.696-3.62-5.586-1.196-1.92-2.355-3.894-3.513-5.86l-2.149-3.635c-1.158-1.936-2.317-3.879-3.429-5.86s-2.164-4.001-3.223-6.005l-2.126-4.016c-1.021-1.92-2.050-3.833-3.018-5.776-0.953-1.905-1.852-3.825-2.751-5.753l-2.042-4.351c-0.968-2.035-1.943-4.077-2.858-6.15-0.808-1.836-1.57-3.711-2.332-5.578l-2.103-5.083c-0.838-1.981-1.661-3.963-2.438-5.982-0.739-1.913-1.425-3.856-2.103-5.791l-1.821-5.083c-0.739-2.035-1.486-4.077-2.172-6.142-0.632-1.928-1.219-3.879-1.798-5.837l-1.631-5.327c-0.64-2.073-1.273-4.13-1.859-6.218-0.556-2.004-1.052-4.039-1.555-6.058l-1.349-5.365c-0.541-2.096-1.082-4.176-1.562-6.294-0.465-2.065-0.869-4.153-1.28-6.241l-1.158-5.807c-0.411-1.981-0.823-3.978-1.181-5.99-0.381-2.187-0.693-4.389-1.013-6.592l-0.884-5.929c-0.305-1.928-0.61-3.863-0.853-5.814-0.335-2.713-0.587-5.441-0.838-8.177l-0.549-5.593c-0.175-1.6-0.351-3.201-0.465-4.824-0.419-5.616-0.724-11.286-0.892-16.879h366.386zM779.769 163.815l-0.572 0.533-272.040 272.045h-384.979c-6.409 0-11.621 5.205-11.621 11.613 0 221.362 180.080 401.453 401.431 401.453 221.359 0 401.454-180.090 401.454-401.453 0-6.553-0.16-13.221-0.488-19.813-0.107-2.301-0.29-4.587-0.472-6.874l-0.465-6.302c-0.145-2.149-0.282-4.29-0.488-6.439-0.351-3.513-0.8-7.011-1.257-10.501l-0.61-4.877c-0.152-1.349-0.312-2.69-0.503-4.016-0.701-4.778-1.57-9.518-2.438-14.25l-0.358-2.065c-0.152-0.945-0.312-1.89-0.495-2.835-0.983-4.999-2.126-9.96-3.3-14.905l-0.396-1.791c-0.16-0.739-0.32-1.486-0.503-2.225-1.257-5.075-2.675-10.097-4.13-15.103l-0.419-1.547c-0.183-0.671-0.358-1.334-0.564-1.997-1.494-5.014-3.162-9.967-4.862-14.921l-0.518-1.585c-0.206-0.625-0.404-1.25-0.625-1.867-1.715-4.847-3.581-9.632-5.479-14.402l-0.579-1.509c-0.274-0.732-0.549-1.448-0.846-2.172-1.89-4.61-3.932-9.16-5.997-13.701l-0.754-1.715c-0.343-0.785-0.678-1.562-1.036-2.332-2.035-4.328-4.206-8.596-6.386-12.855l-0.983-1.958c-0.427-0.869-0.861-1.73-1.311-2.576-2.141-4.054-4.42-8.024-6.706-12.002l-1.12-1.997c-0.564-1.006-1.128-2.012-1.715-3.010-2.233-3.742-4.58-7.422-6.934-11.103l-1.25-1.989c-0.732-1.166-1.463-2.332-2.225-3.49-2.118-3.193-4.336-6.325-6.553-9.464l-2.050-2.919c-0.876-1.257-1.753-2.507-2.659-3.749-2.156-2.926-4.404-5.799-6.652-8.672l-2.088-2.69c-1.097-1.425-2.202-2.842-3.338-4.245-2.073-2.553-4.222-5.052-6.37-7.544l-2.637-3.063c-1.273-1.501-2.545-2.995-3.863-4.458-2.172-2.431-4.42-4.793-6.675-7.171l-1.113-1.174c-0.64-0.671-1.265-1.356-1.882-2.035-0.884-0.953-1.768-1.913-2.69-2.858l-3.025-3.079c-2.164-2.164-5.159-3.399-8.207-3.399-2.278 0-4.488 0.663-6.401 1.92-0.556 0.381-0.945 0.793-1.257 1.128zM84.083 657.076c-5.669 2.949-7.887 9.975-4.945 15.66 45.584 87.633 115.705 158.624 202.781 205.314 5.807 2.987 12.71 0.892 15.736-4.755 3.010-5.647 0.884-12.703-4.74-15.728-82.946-44.449-149.736-112.064-193.133-195.544-2.019-3.856-5.974-6.256-10.318-6.256-1.897 0-3.711 0.442-5.38 1.311zM543.414 934.628c255.817-16.269 456.205-230.019 456.205-486.617 0-268.882-218.752-487.63-487.638-487.63-268.863 0-487.6 218.748-487.6 487.63 0 39.717 4.801 79.259 14.265 117.513 0.754 3.056 2.629 5.616 5.281 7.216 2.629 1.585 5.738 2.065 8.778 1.28 3.025-0.754 5.578-2.637 7.178-5.311 1.593-2.652 2.050-5.761 1.295-8.771-8.999-36.448-13.556-74.115-13.556-111.927 0-256.072 208.305-464.396 464.358-464.396 256.068 0 464.397 208.324 464.397 464.396 0 244.375-190.832 447.936-434.449 463.428-9.982 0.625-20.056 0.945-29.947 0.945-6.401 0-11.613 5.212-11.613 11.613 0 6.409 5.212 11.621 11.613 11.621 10.615 0 21.184-0.335 31.433-0.991zM413.793 902.242c-5.448 0-10.234 3.879-11.377 9.213-1.295 6.287 2.736 12.459 8.984 13.777 15.682 3.284 31.852 5.852 48.068 7.613 6.553 0.686 12.116-3.871 12.794-10.333 0.343-3.063-0.533-6.096-2.477-8.512-1.943-2.423-4.717-3.947-7.803-4.283-15.347-1.638-30.755-4.069-45.797-7.224-0.8-0.168-1.585-0.251-2.393-0.251z" />
<glyph unicode="&#xe901;" glyph-name="2" horiz-adv-x="1609" d="M1609.143 867.578l-804.571-931.578-804.571 931.578 114.768 92.422 689.803-798.783 689.803 798.783z" />
<glyph unicode="&#xe902;" glyph-name="t2" horiz-adv-x="1097" d="M169.444 141.219c-25.496 0-46.241-20.48-46.241-45.695 0-25.25 20.745-45.73 46.241-45.73s46.205 20.48 46.205 45.73c0 25.215-20.709 45.695-46.205 45.695M169.444 29.063c-37.066 0-67.204 29.805-67.204 66.462 0 36.62 30.138 66.426 67.204 66.426 37.029 0 67.204-29.805 67.204-66.426 0-36.656-30.175-66.462-67.204-66.462M310.768 13.978c-10.091-31.057-39.583-53.597-74.294-53.597h-201.612c-5.767 0-10.481 4.663-10.481 10.366v307.793c0 5.703 4.715 10.366 10.481 10.366 5.803 0 10.481-4.663 10.481-10.366v-297.427h191.13c31.444 0 57.049 25.322 57.049 56.419v34.953c-0.005 0.428-0.007 0.857-0.007 1.287v459.514h-248.172v-53.585c0-5.703-4.679-10.366-10.481-10.366-5.767 0-10.481 4.663-10.481 10.366v63.951c0 5.703 4.715 10.366 10.481 10.366h266.062l118.694 75.694c102.021 65.027 162.95 175.497 162.95 295.544 0 5.703 4.679 10.366 10.481 10.366h40.91c32.568 0 63.214-12.553 86.244-35.329 30.138-29.77 42.397-73.707 32.061-114.631l-25.351-100.177c-8.088-31.814-0.979-64.883 19.403-90.779 20.419-25.86 51.174-40.709 84.322-40.709h159.251c45.697 0 82.872-36.764 82.872-81.956 0-35.257-22.595-65.386-54.22-76.935 20.673-14.921 34.164-39.059 34.164-66.282 0-35.221-22.631-65.386-54.256-76.971 20.709-14.921 34.2-39.023 34.2-66.246 0-35.293-22.631-65.386-54.256-76.971 20.673-14.921 34.164-39.059 34.164-66.246 0-45.228-37.174-81.992-82.908-81.992h-521.528c-41.047 0-77.109 21.429-97.353 53.582zM314.486 538.002v-465.393c0.631-50.542 42.383-91.482 93.636-91.482h521.528c34.164 0 61.945 27.474 61.945 61.261 0 33.751-27.781 61.225-61.945 61.225-5.767 0-10.481 4.663-10.481 10.366s4.715 10.366 10.481 10.366h20.092c34.164 0 61.945 27.474 61.945 61.261 0 33.751-27.781 61.225-61.945 61.225-5.803 0-10.481 4.663-10.481 10.366s4.679 10.366 10.481 10.366h20.056c34.164 0 61.945 27.51 61.945 61.261s-27.781 61.225-61.945 61.225c-5.767 0-10.481 4.663-10.481 10.366s4.715 10.366 10.481 10.366h20.092c34.128 0 61.909 27.51 61.909 61.261 0 33.787-27.781 61.225-61.909 61.225h-159.251c-39.677 0-76.416 17.754-100.824 48.707-24.444 30.917-32.895 70.479-23.248 108.569l25.387 100.177c8.559 33.858-1.632 70.228-26.584 94.904-19.077 18.866-44.428 29.267-71.411 29.267h-30.574c-3.409-123.096-67.313-235.646-172.416-302.646l-116.484-74.24zM24.395 365.106v29.052c0 5.703 4.679 10.366 10.481 10.366s10.481-4.663 10.481-10.366v-29.052c0-5.703-4.679-10.366-10.481-10.366s-10.481 4.663-10.481 10.366z" />
<glyph unicode="&#xe903;" glyph-name="t3" d="M157.376 93.368h247.494v305.043h-247.494v-305.043zM984.843 935.619c8.176 0 14.776-6.62 14.776-14.776v-945.685c0-8.157-6.6-14.776-14.776-14.776h-945.685c-8.157 0-14.776 6.62-14.776 14.776v945.685c0 8.157 6.62 14.776 14.776 14.776h945.685zM970.066-10.066v768.369h-916.133v-768.369h916.133zM142.6 63.815c-8.176 0-14.776 6.62-14.776 14.776v334.595c0 8.157 6.6 14.776 14.776 14.776h277.027c8.157 0 14.776-6.62 14.776-14.776v-334.595c0-8.157-6.62-14.776-14.776-14.776h-277.027zM655.417 210.022c8.176 0 14.776-6.62 14.776-14.776v-116.654c0-8.157-6.6-14.776-14.776-14.776h-128.633c-8.176 0-14.776 6.62-14.776 14.776v116.654c0 8.157 6.6 14.776 14.776 14.776h128.633zM541.541 93.368h99.1v87.102h-99.1v-87.102zM881.416 210.022c8.157 0 14.776-6.62 14.776-14.776v-116.654c0-8.157-6.62-14.776-14.776-14.776h-128.653c-8.157 0-14.776 6.62-14.776 14.776v116.654c0 8.157 6.62 14.776 14.776 14.776h128.653zM767.56 93.368h99.080v87.102h-99.080v-87.102zM881.416 427.963c8.157 0 14.776-6.62 14.776-14.776v-116.654c0-8.157-6.62-14.776-14.776-14.776h-354.632c-8.176 0-14.776 6.62-14.776 14.776v116.654c0 8.157 6.6 14.776 14.776 14.776h354.632zM541.561 311.309h325.079v87.102h-325.079v-87.102zM142.6 501.845c-8.176 0-14.776 6.62-14.776 14.776v153.024c0 8.157 6.6 14.776 14.776 14.776h738.817c8.157 0 14.776-6.62 14.776-14.776v-153.024c0-8.157-6.62-14.776-14.776-14.776h-738.817zM157.376 531.398h709.264v123.471h-709.264v-123.471zM53.934 787.856h916.133v118.211h-916.133v-118.211zM896.79 857.369c5.477 5.615 15.229 5.615 20.844 0 2.798-2.817 4.433-6.502 4.433-10.481 0-3.842-1.635-7.526-4.295-10.343-2.955-2.817-6.639-4.275-10.481-4.275-3.999 0-7.703 1.458-10.501 4.275-2.817 2.817-4.275 6.502-4.275 10.343 0 3.98 1.458 7.664 4.275 10.481zM811.239 861.814c8.117 0 14.776-6.659 14.776-14.776 0-8.294-6.659-14.776-14.776-14.776s-14.776 6.482-14.776 14.776c0 8.117 6.659 14.776 14.776 14.776zM704.707 857.369c5.615 5.615 15.367 5.477 20.963 0 2.66-2.817 4.295-6.502 4.295-10.481 0-3.842-1.635-7.684-4.295-10.343-2.798-2.817-6.639-4.275-10.481-4.275-3.999 0-7.684 1.458-10.481 4.275-2.817 2.66-4.295 6.502-4.295 10.343 0 3.98 1.478 7.664 4.295 10.481z" />
<glyph unicode="&#xe904;" glyph-name="10" horiz-adv-x="1132" d="M1025.684 464.842h-353.684v35.368h-212.211v-35.368h-353.684v212.211h919.579v-212.211zM1025.684 75.789h-919.579v282.947h353.684v-35.368h212.211v35.368h353.684v-282.947zM389.053 783.158v70.737h353.684v-70.737h-353.684zM1061.053 783.158h-212.211v106.105c0 39.047-31.69 70.737-70.737 70.737h-424.421c-39.047 0-70.737-31.69-70.737-70.737v-106.105h-212.211c-39.047 0-70.737-31.69-70.737-70.737v-672c0-39.047 31.69-70.737 70.737-70.737h990.316c39.047 0 70.737 31.69 70.737 70.737v672c0 39.047-31.69 70.737-70.737 70.737z" />
<glyph unicode="&#xe905;" glyph-name="6" horiz-adv-x="960" d="M477.76 959.987l-45.184-45.924-432.576-430.749v-91.978l448.064 446.556 0.064-901.892h64l-0.064 897.208 448-441.872v91.978l-448 441.872-18.816 19.059z" />
<glyph unicode="&#xe906;" glyph-name="t4" d="M167.948 776.906h210.546c8.147 0 14.75 6.603 14.75 14.771s-6.603 14.771-14.75 14.771h-210.546c-8.167 0-14.791-6.603-14.791-14.771s6.623-14.771 14.791-14.771zM570.591 688.214h-62.76c-8.167 0-14.791-6.583-14.791-14.771 0-8.168 6.623-14.771 14.791-14.771h62.76c8.167 0 14.791 6.603 14.791 14.771 0 8.188-6.623 14.771-14.791 14.771zM167.948 658.67h254.858c8.167 0 14.791 6.603 14.791 14.791 0 8.168-6.623 14.751-14.791 14.751h-254.858c-8.167 0-14.791-6.583-14.791-14.751 0-8.188 6.623-14.791 14.791-14.791zM167.948 540.432h92.301c8.167 0 14.791 6.603 14.791 14.791 0 8.168-6.623 14.771-14.791 14.771h-92.301c-8.167 0-14.791-6.603-14.791-14.771 0-8.188 6.623-14.791 14.791-14.791zM570.591 569.997h-225.297c-8.188 0-14.791-6.603-14.791-14.791 0-8.168 6.603-14.771 14.791-14.771h225.297c8.167 0 14.791 6.603 14.791 14.771 0 8.188-6.623 14.791-14.791 14.791zM167.948 422.217h254.858c8.167 0 14.791 6.603 14.791 14.771s-6.623 14.771-14.791 14.771h-254.858c-8.167 0-14.791-6.603-14.791-14.771s6.623-14.771 14.791-14.771zM570.591 333.543h-180.985c-8.167 0-14.771-6.603-14.771-14.791 0-8.168 6.603-14.751 14.771-14.751h180.985c8.167 0 14.791 6.583 14.791 14.751 0 8.188-6.623 14.791-14.791 14.791zM167.948 303.999h136.653c8.147 0 14.791 6.583 14.791 14.771 0 8.168-6.644 14.771-14.791 14.771h-136.653c-8.167 0-14.791-6.603-14.791-14.771 0-8.188 6.623-14.771 14.791-14.771zM496.703 215.307h-328.751c-8.167 0-14.791-6.603-14.791-14.771s6.623-14.771 14.791-14.771h328.751c8.167 0 14.791 6.603 14.791 14.771s-6.623 14.771-14.791 14.771zM684.596 47.565v784.534c0 40.778-33.097 73.977-73.792 73.977h-556.872v-827.385h556.872c28.871 0 55.019-11.927 73.792-31.127zM610.804 935.619c56.969 0 103.333-46.426 103.333-103.52v-856.927c0-8.188-6.623-14.791-14.771-14.791-8.167 0-14.771 6.603-14.771 14.791 0 40.778-33.097 73.977-73.792 73.977h-571.622c-8.167 0-14.791 6.603-14.791 14.791v856.886c0 8.188 6.623 14.791 14.791 14.791h571.622zM599.112-10.054c8.147 0 14.791-6.603 14.791-14.791 0-8.168-6.644-14.771-14.791-14.771h-559.94c-8.147 0-14.791 6.603-14.791 14.771 0 8.188 6.644 14.791 14.791 14.791h559.94zM970.058 87.268h-51.545v641.232c0 8.168-6.623 14.771-14.791 14.771-8.147 0-14.771-6.603-14.771-14.771v-641.232h-51.545v667.382l18.428 37.019h95.775l18.448-37.019v-667.382zM970.058 19.488c0-16.295-13.206-29.542-29.46-29.542h-73.731c-16.254 0-29.46 13.247-29.46 29.542v38.218h132.65v-38.218zM903.722 887.732l33.158-66.5h-66.295l33.137 66.5zM916.969 927.474c-5.018 9.996-21.455 9.996-26.473 0l-81.106-162.746c-1.016-2.032-1.544-4.287-1.544-6.583v-738.657c0-32.57 26.473-59.105 59.021-59.105h73.731c32.548 0 59.021 26.535 59.021 59.105v738.657c0 2.296-0.528 4.551-1.544 6.583l-81.106 162.746z" />
<glyph unicode="&#xe907;" glyph-name="t5" horiz-adv-x="1170" d="M1091.593 935.619c29.999 0 54.312-24.507 54.312-54.739v-640.452c0-30.233-24.313-54.739-54.312-54.739h-378.818v-124.040h147.41c27.702 0 50.238-22.714 50.238-50.634s-22.537-50.634-50.238-50.634h-550.084c-27.702 0-50.238 22.714-50.238 50.634s22.537 50.634 50.238 50.634h147.41v124.040h-378.818c-29.999 0-54.312 24.507-54.312 54.739v640.452c0 30.233 24.313 54.739 54.312 54.739h1012.901zM105.848 267.798h958.589v585.712h-958.589v-585.712zM281.25 529.728c-11.707 5.507-19.262 17.448-19.259 30.427v2.403c0 12.995 7.557 24.939 19.256 30.427l171.296 80.281c4.337 2.031 9.184 3.101 14.012 3.101 6.406 0 12.611-1.812 17.939-5.244 9.629-6.186 15.384-16.758 15.384-28.284v-0.873c0-12.998-7.563-24.945-19.267-30.43l-107.146-50.18 107.143-50.169c11.707-5.485 19.27-17.429 19.27-30.432v-0.881c0-11.509-5.752-22.082-15.386-28.287-5.38-3.449-11.566-5.266-17.915-5.266-4.874 0-9.589 1.048-14.018 3.115l-171.31 80.292zM501.406 366.19c-6.24 8.611-8.049 19.827-4.839 30.008l112.865 352.443c4.429 13.931 17.173 23.305 31.715 23.305h0.85c10.591 0 20.641-5.146 26.89-13.764 6.249-8.641 8.046-19.862 4.809-30.036l-112.851-352.415c-4.426-13.931-17.162-23.305-31.696-23.305h-0.855c-10.588 0-20.638 5.146-26.887 13.764zM670.408 641.97v0.876c0 11.525 5.752 22.098 15.405 28.295 5.323 3.421 11.53 5.233 17.931 5.233 4.834 0 9.673-1.073 13.993-3.096l171.299-80.286c11.701-5.488 19.262-17.432 19.262-30.427v-2.403c0-12.981-7.557-24.923-19.251-30.421l-171.302-80.289c-4.462-2.077-9.171-3.126-14.037-3.126-6.357 0-12.549 1.82-17.909 5.263-9.648 6.207-15.397 16.78-15.397 28.289v0.881c0 13.003 7.563 24.948 19.272 30.432l107.143 50.169-107.143 50.169c-11.715 5.507-19.267 17.451-19.267 30.441z" />
<glyph unicode="&#xe908;" glyph-name="3" horiz-adv-x="652" d="M592.822 960l-592.822-512 592.822-512 58.814 73.034-508.317 438.966 508.317 438.966z" />
<glyph unicode="&#xe909;" glyph-name="4" horiz-adv-x="652" d="M58.814 960l-58.814-73.034 508.317-438.966-508.317-438.966 58.814-73.034 592.822 512z" />
<glyph unicode="&#xe90a;" glyph-name="8" horiz-adv-x="987" d="M15.306 73.031l853.377 853.377 103.44-103.44-853.377-853.377-103.44 103.44zM118.746 926.408l853.377-853.377-103.44-103.44-853.377 853.377 103.44 103.44z" />
<glyph unicode="&#xe90b;" glyph-name="t6" d="M981.334 170.688v42.646h-48.256c-9.726 0.002-18.218 6.582-20.65 16-3.482 13.48-8.832 26.404-15.894 38.4-4.954 8.384-3.602 19.060 3.286 25.942l34.134 34.136-30.166 30.166-34.134-34.136c-6.884-6.888-17.558-8.24-25.942-3.284-11.996 7.060-24.92 12.412-38.4 15.892-9.418 2.432-15.998 10.926-16 20.65v48.234h-42.646v-48.256c-0.002-9.726-6.582-18.218-16-20.65-13.478-3.482-26.404-8.832-38.4-15.894-8.384-4.954-19.058-3.602-25.942 3.286l-34.134 34.134-30.166-30.164 34.134-34.136c6.886-6.884 8.24-17.558 3.286-25.94-7.062-11.996-12.412-24.924-15.894-38.402-2.43-9.416-10.924-15.998-20.65-16h-48.234v-42.666h48.256c9.726 0 18.218-6.582 20.65-16 3.482-13.478 8.832-26.404 15.894-38.4 4.954-8.384 3.602-19.058-3.286-25.94l-34.136-34.136 30.168-30.166 34.134 34.136c6.884 6.886 17.558 8.24 25.942 3.284 11.996-7.062 24.922-12.412 38.4-15.894 9.418-2.43 15.998-10.924 16-20.648l-0.022-48.216h42.666v48.256c0.002 9.726 6.582 18.22 16 20.65 13.478 3.484 26.404 8.832 38.4 15.896 8.384 4.952 19.060 3.6 25.942-3.288l34.134-34.132 30.166 30.166-34.134 34.132c-6.888 6.884-8.24 17.558-3.286 25.942 7.062 11.996 12.412 24.924 15.894 38.4 2.43 9.418 10.926 15.998 20.65 16h48.236zM1002.664 256c11.782 0 21.334-9.552 21.336-21.332v-85.334c0-11.78-9.552-21.334-21.334-21.334h-53.802c-2.256-6.336-4.832-12.552-7.722-18.624l38.058-38.058c8.328-8.332 8.328-21.836 0-30.166l-60.352-60.35c-8.332-8.328-21.836-8.328-30.166 0l-38.058 38.036c-6.072-2.888-12.288-5.466-18.624-7.722v-53.782c0-11.78-9.552-21.334-21.334-21.334h-85.334c-11.782 0-21.334 9.554-21.334 21.334v53.804c-6.336 2.256-12.552 4.832-18.624 7.72l-38.058-38.056c-8.332-8.328-21.836-8.328-30.166 0l-60.352 60.35c-8.328 8.332-8.328 21.836 0 30.166l38.038 38.058c-2.88 6.070-5.454 12.288-7.702 18.622h-53.802c-11.782 0-21.334 9.554-21.334 21.334v85.334c0 11.782 9.552 21.334 21.334 21.334h53.802c2.256 6.336 4.832 12.554 7.722 18.626l-38.058 38.056c-8.328 8.332-8.328 21.836 0 30.166l60.352 60.352c8.332 8.328 21.836 8.328 30.166 0l38.058-38.038c6.070 2.884 12.288 5.454 18.622 7.702v53.802c0 11.782 9.552 21.334 21.334 21.334h85.334c11.782 0 21.334-9.552 21.334-21.334v-53.802c6.336-2.256 12.552-4.832 18.626-7.72l38.056 38.056c8.332 8.328 21.836 8.328 30.166 0l60.352-60.352c8.328-8.332 8.328-21.836 0-30.166l-38.038-38.056c2.888-6.072 5.466-12.29 7.722-18.626h53.782zM42.666 448c0 259.206 210.128 469.334 469.333 469.334 259.208 0 469.333-210.128 469.333-469.334h42.666c0 282.77-229.23 512-511.999 512s-511.999-229.23-511.999-512c0-282.77 229.23-512 511.999-512v42.666c-259.206 0-469.333 210.128-469.333 469.334zM767.998 149.334c23.564 0 42.666 19.102 42.666 42.666s-19.102 42.666-42.666 42.666c-23.564 0-42.666-19.102-42.666-42.666s19.102-42.666 42.666-42.666zM767.998 277.334c47.128 0 85.334-38.206 85.334-85.334 0-47.13-38.206-85.334-85.334-85.334-47.13 0-85.334 38.206-85.334 85.334s38.206 85.334 85.334 85.334zM335.079 262.26l-75.062-75.060c65.248-63.058 154.078-101.868 251.982-101.868v-42.666c-223.86 0-405.333 181.474-405.333 405.334s181.474 405.334 405.333 405.334c223.86 0 405.333-181.474 405.331-405.334h-42.666c0 193.134-150.974 350.984-341.337 362.026v-106.026h-42.666v106.024c-89.438-5.19-170.168-42.782-230.64-101.222l75.058-75.058-30.168-30.168-73.812 73.808c-46.892-57.354-76.554-129.33-81.124-208.046h106.024v-42.666h-106.024c4.566-78.718 34.228-150.7 81.122-208.056l73.812 73.814 30.17-30.17zM490.665 456.83v161.832h42.666v-170.666c0-5.656-2.248-11.082-6.25-15.082l-106.666-106.666-30.166 30.166 100.416 100.416z" />
<glyph unicode="&#xe90c;" glyph-name="11" horiz-adv-x="1132" d="M1025.684 464.842h-353.684v35.368h-212.211v-35.368h-353.684v212.211h919.579v-212.211zM1025.684 75.789h-919.579v282.947h353.684v-35.368h212.211v35.368h353.684v-282.947zM389.053 783.158v70.737h353.684v-70.737h-353.684zM1061.053 783.158h-212.211v106.105c0 39.047-31.69 70.737-70.737 70.737h-424.421c-39.047 0-70.737-31.69-70.737-70.737v-106.105h-212.211c-39.047 0-70.737-31.69-70.737-70.737v-672c0-39.047 31.69-70.737 70.737-70.737h990.316c39.047 0 70.737 31.69 70.737 70.737v672c0 39.047-31.69 70.737-70.737 70.737z" />
<glyph unicode="&#xe90d;" glyph-name="12" horiz-adv-x="931" d="M93.091 60.121c0 123.159 86.575 229.593 211.627 279.707 45.49-39.253 100.848-62.495 160.737-62.495s115.247 23.242 160.737 62.495c125.052-50.114 211.627-156.548 211.627-279.707h-744.727zM465.455 866.909c100.911 0 186.182-113.664 186.182-248.242 0-134.547-85.271-248.242-186.182-248.242s-186.182 113.695-186.182 248.242c0 134.578 85.271 248.242 186.182 248.242zM688.5 413.898c35.126 57.065 56.227 127.845 56.227 204.769 0 188.509-125.021 341.333-279.273 341.333s-279.273-152.824-279.273-341.333c0-76.924 21.101-147.704 56.227-204.769-144.353-68.484-242.409-201.076-242.409-353.776v-31.030c0-34.257 27.803-62.061 62.061-62.061h806.788c34.257 0 62.061 27.803 62.061 62.061v31.030c0 152.7-98.056 285.293-242.409 353.776z" />
<glyph unicode="&#xe90e;" glyph-name="13" d="M909.435 131.68l-57.728-58.4c-37.056-37.536-95.744-51.072-145.632-33.376-284.736 100.672-510.272 332.16-603.328 619.136-18.144 56.064 1.088 117.76 47.968 153.504l50.464 38.464c11.168 8.544 24.544 13.056 38.72 13.056 24.032 0 45.888-13.344 56.928-34.88l85.28-165.76c1.184-2.24 1.76-4.672 1.76-7.2 0-5.12-2.304-8.704-4.224-10.784l-17.728-19.328c-44.768-48.608-54.464-120.8-24.128-179.552 38.272-74.304 97.888-133.856 172.32-172.16 57.728-29.792 131.936-19.744 179.712 24.096l19.36 17.792c3.136 2.848 11.296 5.888 17.984 2.464l165.856-85.216c21.568-11.072 34.944-32.896 34.944-56.96 0-16.864-6.592-32.8-18.528-44.896zM936.891 318.848l-165.856 85.216c-40.64 20.928-93.12 13.792-126.784-17.152l-19.392-17.728c-18.752-17.28-48.064-21.28-70.784-9.504-56.576 29.088-101.824 74.336-130.976 130.816-11.936 23.168-8.128 51.552 9.568 70.752l17.728 19.328c19.040 20.736 29.504 47.584 29.504 75.648 0 17.664-4.288 35.328-12.384 51.072l-85.312 165.76c-27.584 53.632-82.144 86.944-142.304 86.944-35.424 0-68.96-11.328-96.992-32.736l-50.432-38.464c-79.2-60.384-111.744-164.544-81.056-259.296 102.208-315.232 349.888-569.44 662.624-680.032 25.248-8.96 51.648-13.472 78.432-13.472 62.624 0 123.68 25.44 167.552 69.856l57.76 58.432c29.792 30.144 46.208 70.016 46.208 112.288 0 60.16-33.376 114.688-87.104 142.272z" />
<glyph unicode="&#xe90f;" glyph-name="14" horiz-adv-x="1195" d="M1082.667 818.693l-485.333-407.232-485.333 407.232v29.307h970.667v-29.307zM1082.667 101.333h-970.667v571.163l437.323-366.949c13.925-11.685 30.949-17.547 48.011-17.547s34.085 5.861 48.011 17.547l437.323 366.949v-571.163zM1120 960h-1045.333c-41.216 0-74.667-33.413-74.667-74.667v-821.333c0-41.216 33.451-74.667 74.667-74.667h1045.333c41.216 0 74.667 33.451 74.667 74.667v821.333c0 41.253-33.451 74.667-74.667 74.667z" />
<glyph unicode="&#xe910;" glyph-name="16" d="M912 480c-26.528 0-48-21.504-48-48v-400h-768v768h400c26.528 0 48 21.504 48 48s-21.472 48-48 48h-432c-35.328 0-64-28.672-64-64v-832c0-35.328 28.672-64 64-64h832c35.328 0 64 28.672 64 64v432c0 26.496-21.472 48-48 48zM448 320h-64v64l464 464 64-64-464-464zM1012.832 811.168l-137.664 137.664c-7.52 7.52-17.344 11.168-27.168 11.168-9.856 0-19.648-3.648-27.168-11.168l-532.832-532.832v-192h192l532.832 532.832c7.52 7.52 11.168 17.344 11.168 27.168 0 9.856-3.648 19.648-11.168 27.168z" />
<glyph unicode="&#xe911;" glyph-name="17" horiz-adv-x="1243" d="M967.732 960l-442.017-620.471-318.874 288.33-206.842-206.788 469.857-440.5h173l576.429 826.018z" />
<glyph unicode="&#xe912;" glyph-name="18" horiz-adv-x="1078" d="M591.731 532.742v427.258h-157.484v-427.271h-434.246v-157.037h434.246v-438.178h157.484v438.191l437.822-0.013v157.037z" />
<glyph unicode="&#xe913;" glyph-name="t7" d="M742.242 23.983c-41.411 0-77.914 26.476-90.815 65.817l-105.981 325.55 125.566 385.733 253.009-777.103-181.779 0.002zM372.598 89.863c-12.922-39.404-49.427-65.88-90.836-65.88h-181.781l276.102 848.034h251.125l-254.611-782.154zM998.056 2.030l-296.811 911.632c-4.248 13.050-16.497 21.956-30.238 21.956h-318.013c-13.77 0-25.975-8.863-30.238-21.954l-296.813-911.634c-3.152-9.682-1.478-20.291 4.505-28.531s15.552-13.118 25.735-13.118h225.577c68.971 0 129.764 44.070 151.295 109.731l78.945 242.507 78.967-242.573c21.51-65.594 82.303-109.665 151.274-109.665h225.577c10.183 0 19.75 4.876 25.733 13.116s7.657 18.85 4.505 28.533z" />
<glyph unicode="&#xe914;" glyph-name="7" horiz-adv-x="1109" d="M0 960h1109.333v-170.667h-1109.333v170.667zM0 533.333h1109.333v-170.667h-1109.333v170.667zM0 106.667h1109.333v-170.667h-1109.333v170.667z" />
<glyph unicode="&#xe915;" glyph-name="t8" d="M344.414 585.143v30.476h30.476v-30.476h-30.476zM405.366 585.143v30.476h30.476v-30.476h-30.476zM649.176 280.381v30.476h30.476v-30.476h-30.476zM344.414 508.952v30.476h274.286v-30.476h-274.286zM344.414 432.762v30.476h335.238v-30.476h-335.238zM344.414 356.571v30.476h335.238v-30.476h-335.238zM344.414 280.381v30.476h274.286v-30.476h-274.286zM556.638-9.143c61.261 51.099 111.015 113.432 147.12 182.857h173.901c-16.87-22.448-36.034-43.672-57.53-63.299-0.173-0.158-0.341-0.318-0.507-0.484-5.95-5.952-5.949-15.6 0.004-21.55l97.526-97.524h-360.514zM527.27 173.714h142.008c-35.547-63.891-83.533-120.975-142.008-167.497v167.497zM338.802 204.19c-35.958 75.070-55.366 158.202-55.339 243.81 0.086 85.613 19.564 168.737 55.554 243.81h346.244c35.958-75.070 55.368-158.202 55.341-243.81-0.088-85.613-19.562-168.737-55.554-243.81h-346.246zM496.796 6.105c-58.598 46.512-106.663 103.644-142.23 167.61h142.23v-167.61zM146.297 173.714h174.008c35.535-68.322 84.291-129.771 144.221-180.41-129.968 13.421-243.771 81.288-318.229 180.41zM54.891 448h198.095c0.145-85.27 18.526-168.181 52.558-243.81h-180.251c-44.579 70.568-70.402 154.166-70.402 243.81zM125.293 691.81h180.25c-29.964-66.585-47.779-138.817-51.712-213.333h-197.907c5.143 78.097 29.882 150.83 69.37 213.333zM496.796 889.783v-167.497h-142.008c35.547 63.891 83.531 120.975 142.008 167.497zM464.526 902.695c-59.928-50.638-108.686-112.088-144.221-180.41h-174.008c74.457 99.122 188.261 166.989 318.229 180.41zM527.27 889.895c58.598-46.512 106.661-103.644 142.23-167.61h-142.23v167.61zM849.469 756.248c10.021-10.975 19.385-22.318 28.139-33.962h-173.815c-35.51 68.293-84.23 129.722-144.11 180.352 110.701-11.634 213.994-63.385 289.787-146.39zM968 478.476h-197.762c-3.928 74.516-21.735 146.747-51.69 213.333h180.124c41.427-65.55 64.411-139.034 69.328-213.333zM898.682 204.19h-180.162c34.034 75.629 52.413 158.539 52.56 243.81h197.937c-0.025-85.021-23.64-169.823-70.335-243.81zM852.33 98.789c94.187 91.79 147.299 217.73 147.29 349.244-0.015 269.305-218.345 487.604-487.651 487.587-269.303-0.017-487.602-218.347-487.587-487.651 0.017-269.303 218.347-487.604 487.653-487.587h441.903c4.040 0 7.914 1.606 10.77 4.461 5.952 5.95 5.952 15.598 0.004 21.55l-112.381 112.396z" />
<glyph unicode="&#xe916;" glyph-name="t9" d="M105.007 875.354c-11.24 0-20.377-9.137-20.377-20.377v-813.921c0-11.257 9.137-20.426 20.377-20.426h408.077v294.082h-89.105c-16.636 0-30.14 13.505-30.14 30.14v138.097c0 16.652 13.505 30.14 30.14 30.14h89.105v71.698c0 129.201 81.509 212.669 207.708 212.669 54.436 0 99.061-4.191 110.413-5.668 14.998-1.943 26.238-14.741 26.238-29.867v-123.517c0-16.636-13.472-30.124-30.124-30.14l-73.111-0.016c-36.531 0-38.266-8.928-38.266-37.094v-58.033h106.64c8.671 0 16.909-3.725 22.625-10.229 5.717-6.519 8.366-15.175 7.258-23.766l-17.888-138.081c-1.943-15.030-14.741-26.271-29.9-26.271h-88.751v-294.099h203.003c11.257 0 20.426 9.153 20.426 20.377v813.954c0 11.224-9.169 20.345-20.409 20.345h-813.938zM543.208-39.619h-438.201c-44.464 0-80.626 36.178-80.626 80.674v813.921c0 44.464 36.162 80.642 80.626 80.642h813.938c44.464 0 80.642-36.146 80.674-80.594v-813.97c0-44.48-36.194-80.642-80.69-80.642h-233.143c-16.636 0-30.124 13.505-30.124 30.14v354.363c0 16.636 13.489 30.124 30.124 30.124h92.413l10.1 77.832h-102.497c-16.636 0-30.124 13.489-30.124 30.124v88.157c0 24.071 0 97.342 98.515 97.342l42.987 0.016v65.949c-19.671 1.413-47.017 2.73-76.387 2.73-93.697 0-147.443-55.544-147.443-152.405v-101.839c0-16.636-13.505-30.124-30.14-30.124h-89.105v-77.848h89.105c16.636 0 30.14-13.489 30.14-30.124v-354.347c0-16.636-13.505-30.124-30.14-30.124z" />
<glyph unicode="&#xe917;" glyph-name="23" horiz-adv-x="1344" d="M871.207 479.366l458.501-412.641v825.347zM664.837 293.648l-130.892 117.813-458.468-412.674h1178.721l-458.468 412.674zM75.467 959.99l589.36-530.487 589.393 530.487zM0 66.715l458.468 412.641-458.468 412.706z" />
<glyph unicode="&#xe918;" glyph-name="24" d="M886.69 218.765c-30.027 11.296-60.321 21.15-90.815 29.672 12.561 49.691 20.329 102.866 22.948 157.75h130.564c-6.481-68.178-28.585-131.873-62.696-187.423zM710.186 55.933c9.166 12.695 17.932 26.343 26.255 40.969 12.739 22.326 24.057 46.362 34.022 71.751 21.173-5.837 42.234-12.362 63.162-19.641-35.198-37.84-76.922-69.465-123.439-93.079zM553.812 30.344v172.487c44.831-1.953 89.595-7.013 134.048-15.225-33.046-79.563-80.495-137.199-134.048-157.262zM553.812 406.188h181.275c-2.641-48.803-9.853-95.476-20.795-138.42-53.175 10.431-106.772 16.734-160.48 18.887v119.533zM553.812 609.368c53.708 2.131 107.305 8.433 160.48 18.864 10.941-42.944 18.154-89.617 20.795-138.42h-181.275v119.555zM553.812 865.656c53.553-20.063 101.002-77.699 134.048-157.262-44.453-8.212-89.217-13.272-134.048-15.225v172.487zM833.626 746.988c-20.928-7.257-41.99-13.804-63.162-19.641-9.965 25.411-21.283 49.447-34.022 71.751-8.323 14.648-17.089 28.274-26.255 40.969 46.517-23.592 88.241-55.239 123.439-93.079zM886.69 677.235c34.111-55.55 56.216-119.245 62.674-187.423h-130.541c-2.619 54.906-10.386 108.059-22.948 157.75 30.494 8.522 60.788 18.376 90.815 29.672zM470.188 693.192c-44.831 1.931-89.595 7.013-134.048 15.202 33.068 79.563 80.495 137.199 134.048 157.262v-172.464zM470.188 489.812h-181.253c2.641 48.825 9.876 95.498 20.795 138.42 53.153-10.431 106.75-16.734 160.458-18.864v-119.555zM470.188 286.655c-53.708-2.153-107.305-8.456-160.458-18.887-10.919 42.944-18.154 89.617-20.795 138.42h181.253v-119.533zM470.188 30.344c-53.553 20.063-100.98 77.699-134.048 157.262 44.453 8.212 89.217 13.272 134.048 15.225v-172.487zM190.374 148.989c20.951 7.302 42.034 13.826 63.206 19.663 9.921-25.389 21.261-49.425 33.978-71.751 8.323-14.625 17.089-28.274 26.277-40.969-46.495 23.614-88.263 55.239-123.462 93.057zM137.31 218.765c-34.111 55.55-56.216 119.245-62.674 187.423h130.541c2.641-54.884 10.408-108.059 22.97-157.772-30.516-8.5-60.787-18.376-90.837-29.65zM137.31 677.235c30.050-11.274 60.321-21.15 90.837-29.65-12.561-49.713-20.351-102.866-22.97-157.772h-130.541c6.458 68.178 28.562 131.873 62.674 187.423zM313.836 840.067c-9.188-12.695-17.955-26.321-26.277-40.969-12.717-22.304-24.057-46.34-33.978-71.751-21.172 5.837-42.256 12.384-63.206 19.663 35.198 37.817 76.966 69.465 123.462 93.057zM512 960c-282.765 0-512-229.235-512-512s229.235-512 512-512c282.765 0 512 229.235 512 512s-229.235 512-512 512z" />
<glyph unicode="&#xe919;" glyph-name="t10" horiz-adv-x="1075" d="M115.63 596.644h363.356v66.068h-396.39v-66.068h33.034zM132.137 438.333l125.297 125.276h-125.297v-125.276zM429.425 536.986v26.624h-125.276l-172.012-171.991v-151.921l297.288 297.288zM429.425 354.57v135.7l-297.288-297.288v-135.7l297.288 297.288zM429.425 140.923v166.912l-297.288-297.267v-41.533h125.399l171.889 171.889zM429.425-30.966v125.174l-125.174-125.174h125.174zM148.664 695.747h264.253v49.541h-264.253v-49.541zM148.664 778.342h264.253v49.541h-264.253v-49.541zM231.24 860.918h99.103v33.034h-99.103v-33.034zM462.479-30.966h594.575v-33.034h-1057.055v33.034h99.103v594.575h-16.507c-18.248 0-33.034 14.787-33.034 33.034v82.596c0 9.114 7.393 16.507 16.527 16.507h49.541v49.541h-33.034v33.034h33.034v49.562h-33.034v33.014h115.61v49.562c0 9.114 7.393 16.507 16.507 16.507h33.055v33.034h66.048v-33.034h33.034c9.114 0 16.527-7.393 16.527-16.507v-49.562h115.61v-33.014h-33.034v-49.562h33.034v-33.034h-33.034v-49.541h49.541c9.134 0 16.507-7.393 16.507-16.507v-82.596c0-18.248-14.766-33.034-33.014-33.034h-16.507v-594.575zM684.012 530.584l-143.79-143.79-23.368 23.327 148.644 148.644c3.092 3.113 7.291 4.854 11.674 4.854h141.824l132.116 132.116h-75.735v33.034h115.61c9.134 0 16.507-7.393 16.507-16.507v-115.61h-33.014v75.735l-136.991-136.97c-3.072-3.092-7.27-4.833-11.674-4.833h-141.804zM809.302 18.579v330.322h33.014v-330.322h-33.014zM891.898 18.6v495.473h33.014v-495.473h-33.014zM974.473 18.579v528.527h33.014v-528.527h-33.014zM726.727 18.579v462.459h33.014v-462.459h-33.014zM644.151 134.21v280.76h33.014v-280.76h-33.014zM644.151 18.579v82.575h33.014v-82.575h-33.014zM561.576 18.579v330.322h33.014v-330.322h-33.014zM809.322 381.956v99.082h33.014v-99.082h-33.014z" />
<glyph unicode="&#xe91a;" glyph-name="t11" horiz-adv-x="896" d="M686.378 195.179c14.398 52.798 23.982 112.007 23.982 172.793h152.005c-9.605-71.988-76.801-134.392-175.988-172.793zM569.579-14.397c44.791 38.401 81.594 97.568 105.597 171.175 71.988 25.6 131.177 62.404 171.195 105.597-41.616-131.197-145.595-235.176-276.792-276.771zM463.982-30.412v150.387c62.404 1.597 119.994 9.605 172.793 24.003-38.401-99.186-100.804-166.382-172.793-174.39zM679.988 367.971c-1.618-67.196-11.203-131.197-28.816-187.19-55.993-17.593-118.397-27.198-187.19-28.795v215.986h216.006zM91.199 399.962l103.999 196.796 110.389-110.389 142.379 219.181 123.21-201.588 126.405 96.012 107.174-200.011h-713.556zM431.992 151.986c-67.216 1.597-131.197 11.203-187.211 28.795-17.593 55.993-27.198 118.397-28.795 187.19h216.006v-215.986zM431.992-30.412c-72.009 9.605-134.392 76.801-172.793 175.988 52.778-15.995 110.389-24.003 172.793-25.6v-150.387zM49.603 262.375c38.401-44.791 97.589-81.594 171.195-105.597 25.6-72.009 62.383-131.177 105.576-171.175-131.177 41.596-235.176 145.574-276.771 276.771zM35.206 367.971h148.79c1.597-62.383 9.585-119.994 24.003-172.793-99.207 38.401-166.403 102.402-176.008 172.793h3.215zM463.982 900.747l44.791-52.798h-44.791v52.798zM879.958 399.962h-38.401l-132.795 247.996-129.579-95.991-115.202 188.788v75.204h79.996c9.605 0 15.995 6.39 15.995 15.995 0 4.792-1.597 9.605-6.39 12.8l-94.414 110.389c-3.195 4.792-11.203 6.39-15.995 3.195-6.39-1.597-11.182-7.987-11.182-14.398v-203.185l-131.197-203.185-113.604 113.584-132.795-251.191h-38.401c-9.605 0-15.995-6.39-15.995-15.995v-1.597c1.597-246.399 199.991-444.772 446.39-446.369h3.174c246.419 1.597 444.792 199.97 446.39 446.369v1.597c0 9.605-6.39 15.995-15.995 15.995z" />
<glyph unicode="&#xe91b;" glyph-name="t12" horiz-adv-x="1426" d="M383.929 960l32.143-66.071c-137.5-60.714-253.571-194.643-275-323.214-7.143-30.357-10.714-57.143-10.714-83.929 0-23.214 1.786-44.643 7.143-67.857 51.786 55.357 126.786 87.5 214.286 87.5 167.857 0 287.5-103.571 287.5-282.143 0-169.643-126.786-283.929-300-283.929-119.643 0-207.143 48.214-258.929 128.571-51.786 75-80.357 191.071-80.357 305.357 0 242.857 121.429 464.286 383.929 585.714zM1135.714 960l33.929-66.071c-137.5-60.714-253.571-194.643-276.786-323.214-7.143-28.571-8.929-55.357-8.929-82.143 0-23.214 1.786-46.429 7.143-69.643 51.786 55.357 126.786 87.5 214.286 87.5 167.857 0 287.5-103.571 287.5-282.143 0-169.643-126.786-283.929-300-283.929-119.643 0-207.143 48.214-260.714 128.571-50 75-78.571 191.071-78.571 305.357 0 242.857 121.429 464.286 382.143 585.714z" />
<glyph unicode="&#xe91c;" glyph-name="25" horiz-adv-x="819" d="M0 960v-1024l819.2 512.102z" />
<glyph unicode="&#xe91d;" glyph-name="22" horiz-adv-x="819" d="M819.2 960l-819.2-511.898 819.2-512.102z" />
<glyph unicode="&#xe91e;" glyph-name="21" horiz-adv-x="1138" d="M642.113 384.683c0-40.371-32.851-73.222-73.222-73.222s-73.222 32.851-73.222 73.222v336.068c0 19.154 15.535 34.678 34.689 34.678h77.078c19.154 0 34.678-15.524 34.678-34.678v-336.068zM568.891 73.79c-40.112 0-72.726 32.626-72.726 72.738 0 40.1 32.615 72.715 72.726 72.715 40.1 0 72.726-32.615 72.726-72.715 0-40.123-32.626-72.738-72.726-72.738zM1122.63 112.627l-456.977 791.501c-20.191 34.993-56.368 55.872-96.762 55.872s-76.571-20.879-96.773-55.872l-456.966-791.501c-20.202-34.971-20.202-76.74 0-111.733 20.202-34.982 56.368-55.872 96.762-55.872h913.955c40.393 0 76.571 20.89 96.762 55.861 20.202 34.993 20.191 76.762 0 111.744z" />
<glyph unicode="&#xe91f;" glyph-name="20" horiz-adv-x="977" d="M85.474-63.812c0 0-54.798-3.609-78.939 29.606-13.055 17.936-3.984 54.306 4.958 74.576l21.846 49.703c0 0 60.428 134.889 129.234 213.052 42.241 47.952 92.493 37.039 125.012 21.459 20.027-9.616 42.652-37.558 59.193-52.361 22.798-20.421 63.026-43.609 128.844-44.905h40.379c65.754 1.297 105.981 24.484 128.758 44.905 16.541 14.803 38.539 43.609 58.371 53.528 29.835 14.911 75.258 24.095 116.395-22.626 68.828-78.163 123.323-215.494 123.323-215.494l22.409-48.752c9.267-20.14 18.75-56.315 6.062-74.489-22.647-32.501-73.461-28.201-73.461-28.201h-812.384zM487.488 353.951c-142.744 0-258.425 138.39-258.425 309.021 0 170.567 115.681 297.028 258.425 297.028 142.809 0 258.576-126.461 258.576-297.028 0-170.632-115.767-309.021-258.576-309.021z" />
<glyph unicode="&#xe920;" glyph-name="t13" horiz-adv-x="878" d="M750.641 942.066l71.976-53.062c39.709-29.27 46.646-84.136 15.493-122.528l-28.214-34.787-215.925 159.103 28.216 34.775c31.204 38.429 88.734 45.799 128.453 16.499zM234.531 86.407l442.583 551.546 36.398-25.566-442.806-552.187c-7.72-9.718-22.063-11.682-32.074-4.398-9.97 7.255-11.83 20.963-4.101 30.605zM148.384 118.985c-9.986 7.253-11.841 20.982-4.109 30.614l442.591 551.548 36.383-25.571-442.812-552.202c-7.721-9.699-22.051-11.668-32.053-4.389zM57.676 186.929c-10.001 7.26-11.841 20.957-4.13 30.615l442.25 555.275 38.495-29.103-444.567-552.418c-7.706-9.642-22.077-11.607-32.048-4.368zM187.577 55.489c3.757-13.284 10.761-25.707 23.013-34.584 1.039-0.766 2.235-1.26 3.309-1.94l-213.9-82.966 26.942 218.991c1.091-0.942 1.62-2.192 2.761-3.038 12.022-8.686 26.382-12.968 41.303-12.881-0.090-4.177-0.179-8.358 0.38-12.591 3.111-23.113 15.461-43.52 34.805-57.576 19.33-14.030 43.314-19.959 67.551-16.654 4.755 0.639 9.325 1.919 13.836 3.239zM497.997 776.483l43.2 52.834 218.283-159.427-43.061-53.859-218.422 160.452z" />
<glyph unicode="&#xe921;" glyph-name="19" d="M765.121 294.261c-32.85 32.461-73.912 32.461-106.578 0-24.924-24.719-49.848-49.418-74.363-74.568-6.697-6.922-12.349-8.376-20.521-3.748-16.118 8.765-33.3 15.892-48.783 25.539-72.253 45.445-132.772 103.875-186.388 169.615-26.583 32.686-50.258 67.666-66.806 107.028-3.338 7.946-2.724 13.189 3.789 19.681 24.904 24.084 49.193 48.783 73.708 73.503 34.12 34.345 34.12 74.547-0.225 109.117-19.476 19.681-38.953 38.953-58.409 58.634-20.132 20.091-39.997 40.428-60.314 60.314-32.891 32.051-73.933 32.051-106.619-0.225-25.108-24.699-49.193-50.033-74.752-74.322-23.654-22.405-35.594-49.848-38.113-81.879-3.994-52.142 8.786-101.376 26.808-149.32 36.864-99.267 92.979-187.453 161.055-268.268 91.935-109.322 201.646-195.83 330.035-258.232 57.795-28.058 117.699-49.623 182.825-53.187 44.81-2.499 83.763 8.806 114.975 43.786 21.361 23.859 45.445 45.629 68.055 68.465 33.505 33.935 33.731 74.957 0.43 108.483-39.813 39.997-79.811 79.79-119.808 119.583zM725.139 461.16l77.251 13.21c-12.124 70.963-45.629 135.27-96.522 186.368-53.821 53.821-121.897 87.736-196.874 98.222l-10.875-77.701c57.999-8.151 110.776-34.345 152.453-76.022 39.363-39.363 65.126-89.211 74.568-144.077zM845.959 797.080c-89.19 89.19-202.076 145.531-326.697 162.918l-10.875-77.701c107.622-15.073 205.23-63.857 282.296-140.718 73.073-73.093 121.037-165.437 138.424-267.018l77.271 13.189c-20.316 117.719-75.796 224.502-160.42 309.33z" />
<glyph unicode="&#xe922;" glyph-name="15" d="M1003.87 745.312l-194.492 194.534c-26.814 26.872-70.368 26.872-97.208 0l-48.617-48.634c-26.865-26.846-26.865-70.395 0-97.267l194.466-194.509c26.84-26.872 70.368-26.872 97.233 0l48.617 48.634c26.84 26.821 26.84 70.395 0 97.242zM393.911 122.483c-0.28-0.203-0.687-0.458-1.119-0.712-0.229-0.153-0.534-0.331-0.814-0.534-0.254-0.178-0.585-0.356-0.916-0.559-0.305-0.178-0.585-0.356-0.941-0.559-11.296-6.762-44.546-24.253-125.167-53.413-9.438-3.407-19.691-7.017-30.427-10.728l-114.634 114.656c3.714 10.805 7.352 21.152 10.787 30.634 29.104 80.92 46.581 114.224 53.298 125.512 0.178 0.28 0.331 0.534 0.483 0.763 0.229 0.407 0.458 0.763 0.661 1.068 0.153 0.28 0.331 0.559 0.483 0.788 0.28 0.407 0.509 0.813 0.738 1.144l8.37 8.389 207.772-207.83-8.573-8.618zM614.937 745.312c-26.865 26.872-70.394 26.872-97.208 0l-375.271-375.569c0 0-34.192-34.422-111.404-283.513-0.56-1.729-1.068-3.483-1.628-5.237-1.374-4.474-2.773-8.974-4.172-13.576-1.247-4.068-2.493-8.212-3.765-12.381-1.069-3.534-2.112-7.017-3.18-10.601-2.468-8.161-4.961-16.448-7.479-25.016-5.546-18.813-19.080-61.243-3.765-76.598 14.73-14.771 57.648-1.78 76.423 3.788 8.497 2.517 16.74 4.983 24.855 7.423 3.74 1.144 7.378 2.237 11.016 3.356 3.943 1.195 7.861 2.39 11.677 3.559 4.859 1.5 9.616 2.974 14.323 4.398 1.399 0.458 2.748 0.864 4.147 1.297 237.155 73.802 279.743 108.453 283.279 111.605l0.051 0.051c0.153 0.127 0.229 0.203 0.229 0.203l10.99 11.008 0.738-0.737 364.612 364.739c26.84 26.872 26.84 70.421 0 97.292l-194.466 194.509z" />
<glyph unicode="&#xe923;" glyph-name="minus" horiz-adv-x="805" d="M804.571 530.286v-109.714c0-30.286-24.571-54.857-54.857-54.857h-694.857c-30.286 0-54.857 24.571-54.857 54.857v109.714c0 30.286 24.571 54.857 54.857 54.857h694.857c30.286 0 54.857-24.571 54.857-54.857z" />
<glyph unicode="&#xe924;" glyph-name="plus" horiz-adv-x="805" d="M804.571 530.286v-109.714c0-30.286-24.571-54.857-54.857-54.857h-237.714v-237.714c0-30.286-24.571-54.857-54.857-54.857h-109.714c-30.286 0-54.857 24.571-54.857 54.857v237.714h-237.714c-30.286 0-54.857 24.571-54.857 54.857v109.714c0 30.286 24.571 54.857 54.857 54.857h237.714v237.714c0 30.286 24.571 54.857 54.857 54.857h109.714c30.286 0 54.857-24.571 54.857-54.857v-237.714h237.714c30.286 0 54.857-24.571 54.857-54.857z" />
<glyph unicode="&#xe925;" glyph-name="t14" horiz-adv-x="768" d="M200.139 676.464c0 12.953 10.417 23.43 23.267 23.43h388.683c12.847 0 23.261-10.477 23.261-23.43 0-12.943-10.414-23.432-23.261-23.432h-388.683c-12.849 0-23.267 10.488-23.267 23.432zM612.089 533.527c12.847 0 23.261-10.487 23.261-23.435 0-12.943-10.414-23.446-23.261-23.446h-388.683c-12.849 0-23.267 10.504-23.267 23.446 0 12.948 10.417 23.435 23.267 23.435h388.683zM612.089 367.162c12.847 0 23.261-10.488 23.261-23.447 0-12.937-10.414-23.421-23.261-23.421h-388.683c-12.849 0-23.267 10.484-23.267 23.421 0 12.959 10.417 23.447 23.267 23.447h388.683zM612.089 200.759c12.847 0 23.261-10.473 23.261-23.405 0-12.953-10.414-23.456-23.261-23.456h-388.683c-12.849 0-23.267 10.505-23.267 23.456 0 12.932 10.417 23.405 23.267 23.405h388.683zM91.914 676.464c0 12.953 10.443 23.43 23.284 23.43 12.848 0 23.256-10.477 23.256-23.43 0-12.943-10.409-23.432-23.256-23.432-12.839 0-23.284 10.488-23.284 23.432zM91.914 510.092c0 12.948 10.443 23.435 23.284 23.435 12.848 0 23.256-10.487 23.256-23.435 0-12.943-10.409-23.446-23.256-23.446-12.839 0-23.284 10.504-23.284 23.446zM91.914 343.715c0 12.959 10.443 23.447 23.284 23.447 12.848 0 23.256-10.488 23.256-23.447 0-12.937-10.409-23.421-23.256-23.421-12.839 0-23.284 10.484-23.284 23.421zM91.914 177.353c0 12.932 10.443 23.405 23.284 23.405 12.848 0 23.256-10.473 23.256-23.405 0-12.953-10.409-23.456-23.256-23.456-12.839 0-23.284 10.505-23.284 23.456zM0 960v-1024h768v845.908l-181.532 178.092h-586.468zM51.775 917.31h518.405v-149.461l153.107-2.33v-787.084h-671.55l0.037 938.875z" />
<glyph unicode="&#xe926;" glyph-name="t15" d="M501.437 425.83v239.418h84.121v-233.246c0-128.348-58.11-189.435-155.514-189.435-94.084 0-149.427 58.002-149.427 190.669v232.012h84.675v-239.418c0-71.578 24.352-107.984 67.519-107.984 44.274 0 68.626 34.555 68.626 107.984zM658.607 249.353v415.894h84.675v-415.894h-84.675zM956.962 487.43h-36.136v-85.397h36.136v-356.29h-36.136v-42.698h-362.834v42.698h-85.385v-42.698h-362.84v42.698h-36.147v362.869h36.147v85.366h-36.147v356.28h36.17v36.136h362.817v-36.136h85.385v36.136h362.834v-36.136h36.136v-362.829zM1006.194 850.258v85.361h-85.368v-36.134h-362.834v36.134h-85.385v-36.134h-362.817v36.134h-85.391v-85.361h36.13v-356.28h-36.147v-85.366h36.147v-362.869h-36.147v-85.362h85.385v29.574h362.84v-29.574h85.385v29.574h362.834v-29.574h85.368v85.362h-36.142v356.29h36.142v85.397h-36.142v362.829h36.142z" />
<glyph unicode="&#xe927;" glyph-name="t16" horiz-adv-x="1048" d="M909.722 19.477c0-14.066-11.268-25.515-25.121-25.515h-240.721c-13.851 0-25.119 11.448-25.119 25.515v43.894h290.961v-43.894zM809.428 493.259c9.131 0 16.532-7.517 16.532-16.792 0-9.273-7.401-16.792-16.532-16.792h-90.375c-9.129 0-16.532 7.517-16.532 16.792 0 9.273 7.401 16.792 16.532 16.792h90.375zM618.756 487.894c0.002 14.070 11.27 25.515 25.121 25.515h240.721c13.851 0 25.119-11.446 25.119-25.515v-390.939h-290.961v390.939zM516.102 214.302c2.76 14.356 22.046 18.237 29.956 6.046 4.556-7.026 3.304-16.595-3.006-22.081-5.282-4.593-13.087-5.28-19.089-1.723-6.010 3.563-9.194 10.827-7.861 17.758zM753.756 15.692c-5.333 4.458-7.395 12.030-5.067 18.634 2.284 6.469 8.377 10.948 15.145 11.123 6.792 0.177 13.050-4.031 15.677-10.355 2.895-7.342 0.427-15.996-6.105-20.398-5.982-4.031-14.095-3.648-19.649 0.996zM959.385 935.619h-854.152c-44.58 0-80.852-36.838-80.852-82.126v-119.361c0-9.275 7.403-16.792 16.532-16.792 9.131 0 16.532 7.519 16.532 16.792v119.361c0 26.767 21.439 48.541 47.788 48.541h854.15c26.363 0 47.81-21.776 47.81-48.541v-573.206h-64.409v207.607c0 32.589-26.101 59.1-58.183 59.1h-240.721c-32.083 0-58.183-26.513-58.183-59.1v-320.523h-480.464c-26.349 0-47.788 21.779-47.788 48.541v30.785h489.677c9.133 0 16.532 7.519 16.532 16.792 0 9.275-7.403 16.792-16.532 16.792h-489.677v397.874c0 9.275-7.403 16.792-16.532 16.792s-16.532-7.519-16.532-16.792v-462.242c0-45.286 36.272-82.126 80.852-82.126h283.309l-40.665-96.635h-79.419c-9.131 0-16.532-7.519-16.532-16.792 0-9.275 7.403-16.792 16.532-16.792h276.773c9.131 0 16.532 7.519 16.532 16.792 0 9.275-7.403 16.792-16.532 16.792h-161.397l28.256 67.147h173.606v-84.82c0-32.589 26.101-59.1 58.183-59.1h240.721c32.083 0 58.183 26.513 58.183 59.1v227.221h64.409v-30.785c0-19.551-11.464-37.11-29.206-44.734-8.409-3.614-12.343-13.465-8.786-22.006 2.667-6.409 8.79-10.256 15.234-10.256 2.147 0 4.331 0.429 6.433 1.33 30.002 12.891 49.389 42.59 49.389 75.664v637.579c0.004 45.288-36.276 82.126-80.869 82.126z" />
<glyph unicode="&#xe928;" glyph-name="9" d="M785.107 11.754c-3.324-0.315-6.853-0.457-10.476-0.457-100.32 0.016-281.915 111.553-441.612 271.234-84.693 84.693-155.601 174.112-205.036 258.584-46.568 79.541-69.916 148.275-65.757 193.52 4.096 44.379 52.224 103.897 85.465 138.98l184.43-184.415-90.931-90.947 407.552-407.552 90.931 90.947 184.383-184.383c-34.737-32.768-94.933-81.447-138.949-85.512zM739.673 369.004l-90.931-90.947-320.197 320.197 90.931 90.947-270.809 270.793-21.803-20.055c-12.052-11.075-117.965-110.844-126.141-199.633-6.853-74.327 36.439-166.329 73.949-230.416 52.066-88.93 126.299-182.666 214.662-271.029 175.781-175.75 366.245-289.319 485.281-289.335 5.53 0 10.949 0.236 16.163 0.725 88.789 8.176 188.558 114.089 199.633 126.141l20.070 21.788-270.809 270.824zM551.553 830.492v61.771c215.702 0 391.184-175.482 391.184-391.184h-61.755c0 181.642-147.787 329.413-329.429 329.413zM551.553 686.37v61.771c136.224 0 247.068-110.828 247.068-247.068h-61.771c0 102.179-83.133 185.297-185.297 185.297z" />
<glyph unicode="&#xe929;" glyph-name="1" horiz-adv-x="1609" d="M0 28.422l804.571 931.578 804.571-931.578-114.768-92.422-689.803 798.783-689.803-798.783z" />
<glyph unicode="&#xe92a;" glyph-name="t17" horiz-adv-x="784" d="M278.519 457.602l-41.43-42.257 105.612-107.627 250.153 254.698-41.56 42.259-197.137-200.885c-6.266-6.379-16.423-6.379-22.689 0l-52.951 53.812zM342.701 268.27c-4.256 0-8.336 1.724-11.344 4.788l-128.365 130.732c-6.264 6.381-6.264 16.725 0 23.107l64.183 65.366c6.266 6.379 16.423 6.379 22.689 0l52.838-53.812 197.249 200.885c6.268 6.379 16.423 6.379 22.689 0l64.183-65.366c6.264-6.381 6.264-16.725 0-23.107l-272.776-277.804c-3.009-3.064-7.088-4.788-11.344-4.788zM527.706 61.206c7.83 4.232 17.546 1.201 21.702-6.774s1.179-17.869-6.651-22.102c-7.477-4.036-15.147-7.811-22.947-11.292l-138.6-61.885c-4.092-1.822-8.745-1.822-12.837 0l-138.554 61.885c-66.784 29.78-122.534 80.422-159.189 144.605-32.011 55.72-48.871 119.119-48.843 183.678v502.336c-0.002 1.115 0.106 2.229 0.325 3.321 1.771 8.843 10.247 14.548 18.93 12.742 104.555-21.826 213.349-2.212 304.193 54.842l21.164 13.237c5.149 3.217 11.635 3.217 16.784 0l21.164-13.237c90.836-57.077 199.63-76.715 304.193-54.907 1.053 0.219 2.124 0.331 3.197 0.331 8.863 0.008 16.052-7.303 16.058-16.327v-502.27c0-9.025-7.184-16.341-16.046-16.341s-16.046 7.317-16.046 16.341v482.742c-106.746-17.383-216.072 4.849-308.076 62.653l-12.837 7.975-12.837-7.991c-92.016-57.775-201.333-80-308.076-62.637v-482.744c-0.048-58.764 15.283-116.48 44.414-167.206 33.245-58.247 83.818-104.215 144.411-131.254l132.088-58.96 132.136 59.009c7.070 3.16 13.998 6.569 20.779 10.23zM366.93 793.451c-75.025-44.816-162.795-62.292-248.868-49.547v-371.049c0.038-45.123 12.345-89.353 35.557-127.79 27.217-45.176 67.769-80.428 115.849-100.712 8.175-3.489 12.026-13.065 8.6-21.391-3.426-8.324-12.828-12.248-21.004-8.759-54.29 22.925-100.075 62.747-130.804 113.769-26.315 43.576-40.26 93.726-40.291 144.883v390.397c0 1.105 0.108 2.206 0.325 3.289 1.771 8.843 10.247 14.548 18.93 12.742 84.163-16.877 171.484-1.816 245.498 42.341 0.395 0.259 0.802 0.502 1.217 0.725 7.834 4.216 17.542 1.164 21.682-6.816 4.138-7.981 1.141-17.867-6.693-22.081zM769.646 116.356c6.689-5.92 7.399-16.241 1.587-23.054l-76.73-78.145c0.76-2.717 1.165-5.525 1.203-8.35 0-18.051-14.367-32.683-32.091-32.683-3.007-0.029-6.001 0.38-8.893 1.211-16.844 4.837-26.65 22.668-21.898 39.822l-140.897 143.511c-6.005 6.33-6.005 16.372 0 22.704 6.156 6.492 16.314 6.671 22.689 0.4l140.913-143.508c5.349 1.632 11.049 1.632 16.399 0l76.73 78.143c6.039 5.295 14.977 5.268 20.99-0.051z" />
<glyph unicode="&#xe92b;" glyph-name="t18" d="M512.068 601.902c-84.88 0-153.923-69.031-153.923-153.894 0-84.865 69.044-153.894 153.923-153.894 84.82 0 153.836 69.029 153.836 153.894s-69.016 153.894-153.836 153.894zM512.068 249.328c-109.578 0-198.711 89.122-198.711 198.68s89.134 198.68 198.711 198.68c109.514 0 198.62-89.122 198.62-198.68s-89.106-198.68-198.62-198.68zM436.491-19.214h151.095v94.819c0 10.22 6.91 19.144 16.823 21.694 32.279 8.294 62.924 20.73 91.118 36.958 8.748 5.042 19.828 3.586 26.999-3.573l66.508-66.48 106.806 106.803-64.935 64.863c-7.29 7.303-8.662 18.645-3.295 27.466 17.553 28.926 31.053 60.109 40.092 92.692 2.68 9.695 11.516 16.4 21.577 16.4h90.008v151.082h-86.684c-10.352 0-19.363 7.085-21.78 17.145-8.283 34.423-21.286 67.148-38.606 97.254-5.044 8.779-3.586 19.843 3.586 27.001l60.037 60.052-106.806 106.818-58.431-58.446c-7.287-7.292-18.69-8.647-27.435-3.311-30.705 18.619-63.943 32.614-98.787 41.623-9.886 2.55-16.795 11.475-16.795 21.68v81.887h-151.095v-81.887c0-10.204-6.91-19.129-16.795-21.68-34.845-8.995-68.054-23.004-98.697-41.623-8.834-5.336-20.15-3.981-27.469 3.311l-58.49 58.461-106.774-106.832 59.977-60.052c7.173-7.158 8.629-18.222 3.587-27.001-17.291-30.045-30.268-62.774-38.577-97.254-2.42-10.060-11.428-17.145-21.78-17.145h-86.684v-151.082h90.037c10.089 0 18.894-6.719 21.579-16.441 8.977-32.498 22.448-63.668 40.034-92.651 5.364-8.821 3.994-20.163-3.298-27.451l-64.874-64.878 106.774-106.803 66.48 66.48c7.144 7.188 18.252 8.644 26.999 3.573 28.196-16.244 58.87-28.678 91.146-36.958 9.917-2.55 16.826-11.474 16.826-21.694v-94.819zM609.979-64h-195.881c-12.361 0-22.395 10.029-22.395 22.393v100.214c-24.462 7.392-48.022 16.942-70.385 28.547l-70.446-70.446c-4.197-4.197-9.882-6.558-15.833-6.558-5.949 0-11.633 2.362-15.831 6.558l-138.44 138.471c-8.746 8.745-8.746 22.918 0 31.664l68.549 68.548c-12.685 23.081-23.123 47.265-31.17 72.254h-95.754c-12.363 0-22.393 10.030-22.393 22.391v195.868c0 12.364 10.030 22.393 22.393 22.393h91.819c7.638 26.752 17.873 52.484 30.499 76.818l-63.943 64.015c-8.746 8.748-8.746 22.918 0 31.663l138.44 138.5c8.397 8.398 23.269 8.398 31.664 0l62.167-62.132c24.987 13.73 51.315 24.826 78.664 33.135v87.311c0 12.364 10.034 22.393 22.395 22.393h195.881c12.361 0 22.395-10.029 22.395-22.393v-87.311c27.349-8.309 53.706-19.406 78.695-33.152l62.136 62.149c8.395 8.398 23.268 8.398 31.664 0l138.469-138.5c8.748-8.745 8.748-22.915 0-31.663l-64.003-64.015c12.657-24.379 22.892-50.095 30.53-76.818h91.819c12.363 0 22.393-10.029 22.393-22.393v-195.868c0-12.361-10.030-22.391-22.393-22.391h-95.754c-8.077-25.016-18.515-49.202-31.198-72.238l68.606-68.551c4.198-4.197 6.558-9.897 6.558-15.848 0-5.933-2.36-11.631-6.558-15.83l-138.469-138.471c-8.75-8.748-22.92-8.748-31.664 0l-70.476 70.446c-22.333-11.605-45.895-21.155-70.355-28.532v-100.228c0-12.364-10.034-22.393-22.395-22.393z" />
<glyph unicode="&#xe92c;" glyph-name="t19" horiz-adv-x="1152" d="M1136.626 574.683c0.868-7.175-1.104-14.257-5.564-19.943l-107.596-137.422c-4.456-5.69-10.864-9.302-18.031-10.17-7.191-0.877-14.257 1.104-19.947 5.56l-137.312 107.702c-5.698 4.46-9.306 10.881-10.174 18.068-0.864 7.171 1.112 14.245 5.572 19.911 9.2 11.733 26.234 13.807 37.974 4.606l85.539-67.069c-0.126 2.472-0.268 4.846-0.556 7.2-14.708 121.208-75.888 229.556-172.271 305.074-96.387 75.523-216.224 109.001-337.432 94.297-121.204-14.708-229.543-75.888-305.058-172.271-75.511-96.379-108.993-216.216-94.281-337.424 14.708-121.2 75.88-229.531 172.251-305.038 96.379-75.511 216.211-108.997 337.412-94.285 69.727 8.462 134.682 31.895 193.054 69.65 12.553 8.028 29.326 4.407 37.418-8.044 8.088-12.549 4.476-29.33-8.052-37.427-65.324-42.228-137.965-68.437-215.907-77.893-20.832-2.528-41.574-3.762-62.057-3.766-255.010-0.020-476.359 190.895-507.844 450.28-34.009 280.253 166.313 535.924 446.55 569.934 135.526 16.437 269.531-20.994 377.302-105.437 107.771-84.447 176.179-205.595 192.632-341.133 0.317-2.601 0.495-5.235 0.633-7.833l67.593 86.298c9.2 11.737 26.242 13.807 37.983 4.606 5.69-4.456 9.298-10.86 10.17-18.031zM492.137 811.311c14.919 0 27.053-12.139 27.053-27.057v-348.747l190.027-189.966c5.114-5.11 7.926-11.903 7.926-19.127s-2.812-14.018-7.926-19.127c-5.11-5.114-11.899-7.93-19.131-7.93-7.22 0-14.014 2.817-19.123 7.93l-197.957 197.892c-5.11 5.11-7.922 11.903-7.922 19.131v359.944c0 14.919 12.135 27.057 27.053 27.057z" />
<glyph unicode="&#xe92d;" glyph-name="t20" horiz-adv-x="1382" d="M1043.23 25.714c12.446 16.038 19.374 36.799 19.349 58.123 0 8.314-1.026 16.706-3.131 24.866-22.377 86.146-63.487 143.448-107.65 183.172-44.164 39.621-91.894 61.228-126.204 72.571-48.808 16.115-81.681 61.69-81.629 113.014-0.051 25.867 8.725 51.015 24.327 71.852 35.952 47.679 60.407 120.353 60.048 176.86 0.051 48.629-16.706 92.228-42.496 122.842-25.944 30.691-59.637 48.090-96.103 48.115-36.465-0.026-70.184-17.424-96.128-48.115-25.739-30.614-42.496-74.213-42.47-122.842-0.334-56.507 24.148-129.18 60.048-176.885 15.602-20.837 24.353-45.96 24.302-71.827 0.051-51.349-32.821-96.898-81.578-113.039-34.335-11.317-82.091-32.924-126.229-72.545-44.189-39.698-85.299-97.001-107.625-183.172-2.13-8.186-3.182-16.577-3.182-24.866 0-21.35 6.903-42.085 19.349-58.123 14.73-18.656 31.589-26.714 49.886-26.842h607.255c18.297 0.128 35.131 8.186 49.86 26.842zM993.754 338.682c52.478-46.909 101.312-116.17 126.563-214.274 3.439-13.395 5.107-27.047 5.107-40.571 0-34.694-11.060-68.85-32.513-96.616-24.276-31.692-60.484-51.374-99.541-51.22h-607.255c-39.083-0.154-75.291 19.528-99.567 51.22-21.453 27.766-32.488 61.921-32.488 96.616 0 13.524 1.694 27.176 5.132 40.597 25.251 98.104 74.034 167.339 126.537 214.248 52.504 47.012 108.189 72.109 148.452 85.402 23.070 7.698 38.441 28.998 38.467 53.376-0.026 11.881-3.824 23.48-11.856 34.258-44.574 60.433-72.135 141.421-72.494 214.454 0.026 62.973 21.402 120.584 57.2 163.259 35.618 42.598 86.941 70.595 144.244 70.569 57.277 0.026 108.6-27.971 144.244-70.569 35.772-42.65 57.174-100.285 57.2-163.259-0.334-73.033-27.92-154.021-72.52-214.428-8.032-10.829-11.83-22.403-11.856-34.284 0.026-24.353 15.423-45.678 38.518-53.35 40.237-13.318 95.923-38.415 148.426-85.427zM1375.627 202.637c2.592-10.034 3.824-20.247 3.824-30.435 0-25.841-8.16-51.374-24.276-72.237 0 0 0-0.026-0.026-0.051l-0.051-0.051c0-0.026-0.026-0.026-0.026-0.026-5.363-6.903-13.601-15.961-25.841-23.865-12.138-7.904-28.895-14.447-48.475-14.396h-49.783c-17.322 0-31.41 14.088-31.41 31.435s14.088 31.435 31.41 31.435h49.783c5.902 0.051 10.162 1.694 14.499 4.388 4.208 2.694 7.981 6.646 10.136 9.469l0.026 0.026 0.026 0.051c7.108 9.136 11.188 21.222 11.188 33.822 0 4.927-0.616 9.905-1.873 14.755-16.038 61.742-45.216 102.287-76.523 130.489-31.333 28.125-65.309 43.522-89.764 51.58-43.702 14.422-73.161 55.275-73.11 101.286-0.051 23.147 7.775 45.652 21.684 64.282 25.097 33.155 42.573 85.068 42.213 124.048 0.051 32.693-11.163 61.844-27.894 81.937-16.911 20.17-38.030 30.922-60.51 30.974-13.883-0.026-27.791-4.491-41.007-13.498-14.345-9.803-33.899-6.133-43.702 8.212-9.777 14.319-6.107 33.873 8.212 43.676 22.3 15.269 48.706 24.481 76.497 24.455 43.573 0.026 82.374-21.581 108.882-53.658 26.662-32.205 42.342-75.214 42.367-122.098-0.308-55.557-20.94-115.759-54.659-161.591-6.338-8.597-9.213-17.476-9.238-26.739 0.026-19.041 12.010-35.618 29.998-41.597 30.383-10.059 72.314-28.946 111.961-64.462 39.647-35.439 76.523-87.891 95.461-161.617zM141.293 317.45c-31.333-28.228-60.484-68.747-76.548-130.515-1.257-4.824-1.899-9.803-1.899-14.73 0-12.6 4.106-24.686 11.214-33.848h0.026v-0.026h0.026c2.156-2.848 5.902-6.826 10.111-9.495 4.362-2.72 8.597-4.362 14.524-4.388h49.758c17.347 0 31.435-14.088 31.435-31.435s-14.088-31.435-31.435-31.435h-49.758c-19.58-0.051-36.337 6.492-48.5 14.396-12.215 7.904-20.452 16.937-25.816 23.84-0.026 0.026-0.051 0.026-0.051 0.051l-0.026 0.026h-0.026v0.051c-16.115 20.863-24.302 46.396-24.327 72.263 0 10.136 1.283 20.401 3.901 30.486 18.913 73.649 55.763 126.127 95.41 161.565 39.647 35.516 81.604 54.403 111.961 64.436 18.014 6.005 29.998 22.582 30.024 41.623-0.026 9.238-2.925 18.143-9.238 26.714-33.719 45.857-54.326 106.059-54.685 161.617 0.026 46.884 15.731 89.892 42.393 122.098 26.508 32.077 65.309 53.684 108.882 53.658 27.791 0.026 54.172-9.187 76.471-24.455 14.345-9.803 18.014-29.357 8.237-43.676-9.803-14.345-29.382-18.014-43.702-8.237-13.216 9.033-27.099 13.498-41.007 13.524-22.48-0.051-43.599-10.804-60.536-30.974-16.731-20.093-27.92-49.245-27.894-81.937-0.334-38.98 17.116-90.893 42.265-124.074 13.883-18.605 21.71-41.11 21.684-64.257 0.026-46.011-29.459-86.864-73.187-101.312-24.404-8.032-58.38-23.429-89.687-51.554z" />
<glyph unicode="&#xe92e;" glyph-name="t21" horiz-adv-x="922" d="M92.009 231.907h30.937c5.575 0.008 10.555 2.236 14.346 5.998 3.762 3.79 5.988 8.769 6 14.349v1.161c-0.011 5.58-2.237 10.557-6 14.349-3.79 3.761-8.771 5.99-14.346 5.995h-56.662c-5.58-0.005-10.555-2.234-14.352-5.995-3.756-3.792-5.986-8.769-5.993-14.349v-1.161c0.007-5.58 2.237-10.559 5.993-14.349 3.797-3.762 8.772-5.99 14.352-5.998h25.726zM66.284 485.645h56.662c5.575 0.008 10.555 2.234 14.346 5.998 3.762 3.79 5.988 8.769 6 14.349v1.161c-0.011 5.58-2.237 10.557-6 14.35-3.79 3.759-8.771 5.988-14.346 5.995h-56.662c-5.58-0.007-10.555-2.236-14.352-5.995-3.756-3.793-5.986-8.771-5.993-14.35v-1.161c0.007-5.58 2.237-10.559 5.993-14.349 3.797-3.764 8.772-5.99 14.352-5.998zM66.284 739.385h56.662c5.575 0.007 10.555 2.236 14.346 5.995 3.762 3.793 5.988 8.771 6 14.35v1.161c-0.011 5.58-2.237 10.559-6 14.35-3.79 3.762-8.771 5.988-14.346 5.996h-56.662c-5.58-0.008-10.555-2.234-14.352-5.996-3.756-3.792-5.986-8.771-5.993-14.35v-1.161c0.007-5.58 2.237-10.557 5.993-14.35 3.797-3.759 8.772-5.988 14.352-5.995zM334.792 99.083h308.905l21.503-45.939h-511.495c-46.765 0.015-84.653 37.896-84.661 84.663v48.166h-2.76c-36.608 0.083-66.192 29.673-66.284 66.28v1.161c0.091 36.609 29.676 66.195 66.284 66.282h2.76v120.013h-2.76c-36.608 0.085-66.192 29.673-66.284 66.282v1.161c0.091 36.609 29.676 66.195 66.284 66.282h2.76v120.015h-2.76c-36.608 0.087-66.192 29.671-66.284 66.28v1.161c0.091 36.609 29.676 66.199 66.284 66.282h2.76v48.161c0.008 46.77 37.896 84.653 84.661 84.666h573.602c51.714-0.013 94.051-39.9 98.027-90.597h-46.19c-3.787 25.259-25.531 44.614-51.837 44.66h-573.602c-21.382-0.039-38.693-17.35-38.731-38.729v-48.161h7.972c36.606-0.083 66.192-29.673 66.277-66.282v-1.161c-0.085-36.609-29.671-66.194-66.277-66.28h-7.972v-120.015h7.972c36.606-0.087 66.192-29.673 66.277-66.282v-1.161c-0.085-36.609-29.671-66.197-66.277-66.282h-7.972v-120.013h7.972c36.606-0.087 66.192-29.673 66.277-66.282v-1.161c-0.085-36.608-29.671-66.197-66.277-66.28h-7.972v-48.166c0.038-21.376 17.349-38.685 38.731-38.724h181.088zM242.086 876.362c0 6.342 5.137 11.485 11.485 11.485 6.344 0 11.483-5.142 11.483-11.485v-739.579c0-6.342-5.139-11.483-11.483-11.483-6.347 0-11.485 5.141-11.485 11.483v739.579zM871.029 663.898h-173.878v100.39c0.011 9.822 3.927 18.537 10.353 24.996 6.457 6.424 15.17 10.342 24.991 10.35h103.187c9.819-0.010 18.536-3.926 24.993-10.348 6.426-6.46 10.343-15.178 10.355-24.997v-100.39zM697.153 611.676v33.234l173.876-0.003v-33.232l-173.876 0.002zM871.029 167.89c0-0.118-0.039-0.23-0.039-0.349-20.172 1.834-38.102 10.237-51.528 23.639-15.559 15.572-25.118 37.271-25.118 61.448l-0.002 0.003 0.002 307.214c-0.002 5.242-4.252 9.494-9.496 9.496-5.245-0.002-9.497-4.252-9.497-9.496v-307.223c-0.010-23.734-9.599-45.138-25.146-60.704-13.841-13.823-32.416-22.514-53.013-24.37-0.003 0.114-0.039 0.227-0.041 0.341v424.793h173.878v-424.793zM864.802 139.736l-28.35-60.993h-104.727l-28.348 60.996c-1.364 2.93-2.17 6.050-3.093 9.128 24.568 2.552 46.822 13.085 63.346 29.625 8.792 8.782 15.822 19.266 21.062 30.732 5.239-11.782 12.378-22.517 21.341-31.474 16.096-16.121 37.762-26.377 61.857-28.894-0.923-3.078-1.728-6.194-3.088-9.122zM789.32-22.656l-1.205-1.775-4.025-1.561-4.030 1.564-1.194 1.757-38.311 82.421 87.071 0.002-38.306-82.408zM887.53 816.141c-13.209 13.24-31.66 21.487-51.85 21.477l-103.182-0.002c-20.192 0.008-38.644-8.238-51.85-21.475-13.242-13.211-21.488-31.663-21.477-51.855l-0.002-596.396c0.002-15.254 3.331-30.329 9.763-44.164l75.482-162.392c2.218-4.789 5.235-9.071 8.789-12.618 17.267-16.953 44.495-16.957 61.767-0.003 3.55 3.545 6.565 7.822 8.789 12.616l75.485 162.397c6.432 13.834 9.763 28.908 9.765 44.165l0.002 596.396c0.007 20.192-8.242 38.641-21.482 51.853z" />
<glyph unicode="&#xe92f;" glyph-name="t41" horiz-adv-x="597" d="M21.333 932.932l556.661-496.267-556.661-496.267v992.534zM64 837.734v-802.138l449.878 401.069-449.878 401.069z" />
<glyph unicode="&#xe930;" glyph-name="t23" horiz-adv-x="824" d="M692.775 541.222c7.465 0 13.516-6.051 13.516-13.516 0-7.487-6.051-13.539-13.516-13.539h-570.761c-7.465 0-13.516 6.051-13.516 13.539 0 7.465 6.051 13.516 13.516 13.516h570.761zM692.775 405.647c7.465 0 13.516-6.029 13.516-13.516 0-7.465-6.051-13.539-13.516-13.539h-570.761c-7.465 0-13.516 6.074-13.516 13.539 0 7.487 6.051 13.516 13.516 13.516h570.761zM122.019 785.309c-7.465 0-13.516 6.051-13.516 13.516s6.051 13.539 13.516 13.539h261.318c7.465 0 13.516-6.074 13.516-13.539s-6.051-13.516-13.516-13.516h-261.318zM122.019 649.732c-7.465 0-13.516 6.051-13.516 13.516 0 7.487 6.051 13.539 13.516 13.539h261.318c7.465 0 13.516-6.051 13.516-13.539 0-7.465-6.051-13.516-13.516-13.516h-261.318zM692.775 270.092c7.465 0 13.516-6.051 13.516-13.516s-6.051-13.539-13.516-13.539h-570.761c-7.465 0-13.516 6.074-13.516 13.539s6.051 13.516 13.516 13.516h570.761zM692.775 134.514c7.465 0 13.516-6.029 13.516-13.516 0-7.465-6.051-13.539-13.516-13.539h-570.761c-7.465 0-13.516 6.074-13.516 13.539 0 7.487 6.051 13.516 13.516 13.516h570.761zM507.085 868.583l222.27-219.974h-148.173c-40.903 0.088-74.031 33.195-74.098 74.098v145.876zM699.981 13.469h-578.093c-37.435 0.066-67.715 30.346-67.781 67.803v755.265c0.066 37.413 30.346 67.693 67.781 67.781h312.115c6.449 0 12.788-0.839 18.994-2.164v-179.446c0.022-70.807 57.379-128.163 128.185-128.185h183.687c1.723-7.001 2.893-14.135 2.893-21.445v-491.804c-0.066-37.457-30.368-67.737-67.781-67.803zM779.114 675.488l-243.782 241.264c-26.967 26.68-63.386 41.654-101.329 41.654h-312.115c-67.339-0.022-121.869-54.552-121.891-121.869v-755.265c0.022-67.339 54.552-121.869 121.891-121.891h578.093c67.317 0.022 121.847 54.552 121.869 121.891v491.804c0 38.473-15.372 75.334-42.736 102.411z" />
<glyph unicode="&#xe931;" glyph-name="t24" d="M512.338 270.476c-18.748 0-35.695-6.625-47.72-18.655-11.954-11.96-18.54-28.748-18.54-47.266 0-38.197 27.581-65.92 65.584-65.92h0.676c38.613 0 65.582 27.107 65.581 66.020-0.741 38.753-27.71 65.821-65.581 65.821zM844.506 115.493c-6.972-6.972-14.144-13.668-21.467-20.144l-258.164 318.821 11.839 268.817c0.35 2.992 0.544 6.059 0.544 9.216-0.733 38.366-27.431 65.162-64.923 65.162-18.56 0-35.339-6.557-47.242-18.466-11.838-11.841-18.356-28.46-18.356-46.795 0-3.12 0.203-6.159 0.566-9.126l6.034-131.066-221.66 273.739c80.602 60.093 177.963 92.584 280.322 92.584 125.604 0 243.69-48.912 332.506-137.728s137.73-206.902 137.73-332.508c0-125.604-48.914-243.69-137.73-332.506zM512-22.236c-125.604 0-243.692 48.914-332.508 137.73s-137.728 206.902-137.728 332.506c0 125.606 48.912 243.692 137.728 332.508 6.46 6.458 13.091 12.681 19.85 18.714l257.236-317.675 7.448-161.749c0.162-3.507 2.786-6.258 5.971-6.258h84.749c3.19 0 5.819 2.76 5.972 6.271l1.384 31.421 228.482-282.165c-80.262-59.27-176.96-91.302-278.585-91.302zM874.038 810.039c-96.705 96.703-225.278 149.96-362.038 149.96s-265.335-53.257-362.040-149.96c-96.703-96.705-149.96-225.278-149.96-362.040 0-136.76 53.257-265.334 149.96-362.038 96.705-96.703 225.28-149.962 362.040-149.962s265.334 53.259 362.038 149.962c96.705 96.705 149.962 225.278 149.962 362.038s-53.257 265.335-149.962 362.040z" />
<glyph unicode="&#xe932;" glyph-name="t25" d="M512.067 601.902c-84.88 0-153.923-69.031-153.923-153.894 0-84.865 69.044-153.894 153.923-153.894 84.82 0 153.836 69.029 153.836 153.894s-69.016 153.894-153.836 153.894zM512.067 249.327c-109.578 0-198.711 89.122-198.711 198.68s89.134 198.68 198.711 198.68c109.514 0 198.62-89.122 198.62-198.68s-89.106-198.68-198.62-198.68zM436.49-19.214h151.095v94.819c0 10.22 6.91 19.144 16.823 21.694 32.279 8.294 62.924 20.73 91.118 36.958 8.748 5.042 19.828 3.586 26.999-3.573l66.508-66.48 106.806 106.803-64.935 64.863c-7.29 7.303-8.662 18.645-3.295 27.466 17.553 28.926 31.053 60.109 40.092 92.692 2.68 9.695 11.516 16.4 21.577 16.4h90.008v151.082h-86.684c-10.352 0-19.363 7.085-21.78 17.145-8.283 34.423-21.286 67.148-38.606 97.254-5.044 8.779-3.586 19.843 3.586 27.001l60.037 60.052-106.806 106.818-58.431-58.446c-7.287-7.292-18.69-8.647-27.435-3.311-30.705 18.619-63.943 32.614-98.787 41.623-9.886 2.55-16.795 11.475-16.795 21.68v81.887h-151.095v-81.887c0-10.204-6.91-19.129-16.795-21.68-34.845-8.995-68.054-23.004-98.697-41.623-8.834-5.336-20.15-3.981-27.469 3.311l-58.49 58.461-106.774-106.832 59.977-60.052c7.173-7.158 8.629-18.222 3.587-27.001-17.291-30.045-30.268-62.774-38.577-97.254-2.42-10.060-11.428-17.145-21.78-17.145h-86.684v-151.082h90.037c10.089 0 18.894-6.719 21.579-16.441 8.977-32.498 22.448-63.668 40.034-92.651 5.364-8.821 3.994-20.163-3.298-27.451l-64.874-64.878 106.774-106.803 66.48 66.48c7.144 7.188 18.252 8.644 26.999 3.573 28.196-16.244 58.87-28.679 91.146-36.958 9.917-2.55 16.826-11.474 16.826-21.694v-94.819zM609.978-64h-195.881c-12.361 0-22.395 10.029-22.395 22.393v100.214c-24.462 7.392-48.022 16.942-70.385 28.547l-70.446-70.446c-4.197-4.197-9.882-6.558-15.833-6.558-5.949 0-11.633 2.362-15.831 6.558l-138.44 138.471c-8.746 8.745-8.746 22.918 0 31.664l68.549 68.548c-12.685 23.081-23.123 47.265-31.17 72.254h-95.754c-12.363 0-22.393 10.030-22.393 22.391v195.868c0 12.364 10.030 22.393 22.393 22.393h91.819c7.638 26.752 17.873 52.484 30.499 76.818l-63.943 64.015c-8.746 8.748-8.746 22.918 0 31.663l138.44 138.5c8.397 8.398 23.269 8.398 31.664 0l62.167-62.132c24.987 13.73 51.315 24.826 78.664 33.135v87.311c0 12.364 10.034 22.393 22.395 22.393h195.881c12.361 0 22.395-10.029 22.395-22.393v-87.311c27.349-8.309 53.706-19.406 78.695-33.152l62.136 62.149c8.395 8.398 23.268 8.398 31.664 0l138.469-138.5c8.748-8.745 8.748-22.915 0-31.663l-64.003-64.015c12.657-24.379 22.892-50.095 30.53-76.818h91.819c12.363 0 22.393-10.029 22.393-22.393v-195.868c0-12.361-10.030-22.391-22.393-22.391h-95.754c-8.077-25.016-18.515-49.202-31.198-72.238l68.606-68.551c4.198-4.197 6.558-9.897 6.558-15.848 0-5.933-2.36-11.631-6.558-15.83l-138.469-138.471c-8.75-8.748-22.92-8.748-31.664 0l-70.476 70.446c-22.333-11.605-45.895-21.155-70.355-28.532v-100.228c0-12.364-10.034-22.393-22.395-22.393z" />
<glyph unicode="&#xe933;" glyph-name="t26" horiz-adv-x="1355" d="M1024.961 48.040c12.228 15.655 19.035 35.919 19.010 56.734 0 8.116-1.008 16.306-3.076 24.272-21.985 84.087-62.375 140.020-105.765 178.795-43.39 38.675-90.285 59.765-123.994 70.837-47.954 15.73-80.25 60.216-80.2 110.313-0.050 25.249 8.572 49.796 23.901 70.135 35.322 46.54 59.35 117.477 58.997 172.633 0.050 47.467-16.413 90.024-41.751 119.906-25.49 29.958-58.593 46.941-94.42 46.966-35.827-0.025-68.955-17.008-94.445-46.966-25.288-29.883-41.751-72.44-41.726-119.906-0.328-55.156 23.725-126.093 58.997-172.658 15.329-20.339 23.926-44.862 23.876-70.11 0.050-50.122-32.246-94.582-80.15-110.338-33.734-11.046-80.654-32.137-124.019-70.812-43.415-38.75-83.805-94.683-105.74-178.795-2.093-7.99-3.126-16.181-3.126-24.272 0-20.84 6.782-41.079 19.010-56.734 14.472-18.21 31.036-26.075 49.013-26.201h596.621c17.976 0.125 34.515 7.99 48.987 26.201zM976.352 353.53c51.559-45.788 99.538-113.394 124.347-209.154 3.378-13.075 5.017-26.401 5.017-39.601 0-33.865-10.866-67.205-31.944-94.307-23.851-30.935-59.425-50.147-97.798-49.996h-596.621c-38.398-0.15-73.973 19.062-97.823 49.996-21.077 27.102-31.919 60.442-31.919 94.307 0 13.2 1.664 26.526 5.042 39.626 24.809 95.76 72.737 163.34 124.321 209.128 51.584 45.889 106.295 70.386 145.853 83.361 22.666 7.514 37.768 28.305 37.793 52.101-0.025 11.597-3.757 22.919-11.648 33.44-43.794 58.989-70.871 138.041-71.224 209.329 0.025 61.469 21.027 117.702 56.198 159.357 34.995 41.58 85.419 68.908 141.718 68.883 56.274 0.025 106.698-27.303 141.718-68.883 35.146-41.63 56.173-97.889 56.198-159.357-0.328-71.288-27.431-150.34-71.25-209.304-7.891-10.57-11.623-21.867-11.648-33.465 0.025-23.771 15.153-44.586 37.844-52.075 39.533-13 94.243-37.497 145.827-83.386zM1351.538 220.736c2.546-9.794 3.757-19.763 3.757-29.707 0-25.224-8.017-50.147-23.851-70.511 0 0 0-0.025-0.025-0.050l-0.050-0.050c0-0.025-0.025-0.025-0.025-0.025-5.269-6.738-13.362-15.58-25.389-23.295-11.925-7.715-28.389-14.102-47.626-14.052h-48.912c-17.018 0-30.86 13.752-30.86 30.684s13.841 30.684 30.86 30.684h48.912c5.799 0.050 9.984 1.653 14.245 4.283 4.135 2.63 7.841 6.488 9.959 9.243l0.025 0.025 0.025 0.050c6.984 8.917 10.993 20.715 10.993 33.014 0 4.809-0.605 9.669-1.84 14.403-15.758 60.266-44.424 99.843-75.183 127.371-30.784 27.453-64.165 42.482-88.192 50.347-42.936 14.077-71.88 53.954-71.83 98.866-0.050 22.594 7.639 44.561 21.304 62.746 24.658 32.362 41.827 83.035 41.474 121.084 0.050 31.912-10.967 60.366-27.406 79.979-16.615 19.688-37.364 30.183-59.45 30.233-13.64-0.025-27.305-4.383-40.289-13.175-14.094-9.568-33.305-5.987-42.936 8.015-9.606 13.977-6.001 33.064 8.068 42.632 21.909 14.904 47.853 23.896 75.158 23.871 42.81 0.025 80.931-21.066 106.975-52.376 26.195-31.436 41.6-73.417 41.625-119.18-0.303-54.23-20.573-112.993-53.702-157.729-6.227-8.391-9.051-17.058-9.076-26.1 0.025-18.586 11.799-34.767 29.473-40.603 29.851-9.819 71.048-28.255 110.001-62.921 38.953-34.592 75.183-85.791 93.789-157.754zM138.818 332.805c-30.784-27.553-59.425-67.104-75.208-127.396-1.235-4.709-1.866-9.568-1.866-14.378 0-12.299 4.034-24.096 11.018-33.039h0.025v-0.025h0.025c2.118-2.78 5.799-6.663 9.934-9.268 4.286-2.655 8.446-4.258 14.27-4.283h48.886c17.043 0 30.885-13.752 30.885-30.684s-13.841-30.684-30.885-30.684h-48.886c-19.237-0.050-35.7 6.337-47.651 14.052-12.001 7.715-20.094 16.532-25.363 23.27-0.025 0.025-0.050 0.025-0.050 0.050l-0.025 0.025h-0.025v0.050c-15.833 20.364-23.876 45.287-23.901 70.536 0 9.894 1.261 19.913 3.832 29.757 18.581 71.889 54.786 123.113 93.739 157.704 38.953 34.667 80.175 53.102 110.001 62.896 17.699 5.861 29.473 22.043 29.498 40.628-0.025 9.017-2.874 17.709-9.076 26.075-33.129 44.761-53.374 103.525-53.727 157.754 0.025 45.763 15.455 87.744 41.651 119.18 26.044 31.31 64.165 52.401 106.975 52.376 27.305 0.025 53.223-8.967 75.132-23.871 14.094-9.568 17.699-28.655 8.093-42.632-9.631-14.002-28.868-17.584-42.936-8.041-12.984 8.817-26.624 13.175-40.289 13.2-22.086-0.050-42.836-10.545-59.476-30.233-16.438-19.613-27.431-48.068-27.406-79.979-0.328-38.048 16.817-88.721 41.524-121.109 13.64-18.16 21.33-40.127 21.304-62.721 0.025-44.912-28.944-84.789-71.905-98.891-23.977-7.84-57.358-22.869-88.117-50.322z" />
<glyph unicode="&#xe934;" glyph-name="t27" d="M830.498-13.208c-57.888 0-104.986 46.818-104.986 104.364 0 57.548 47.097 104.365 104.986 104.365s104.986-46.818 104.986-104.365c0-57.546-47.097-104.364-104.986-104.364zM504.166 311.195c-81.879 0-148.495 66.22-148.495 147.619 0 81.397 66.615 147.617 148.495 147.617 81.882 0 148.498-66.22 148.498-147.617 0-81.398-66.615-147.619-148.498-147.619zM199.592 127.367c-15.904 0-28.843 12.862-28.843 28.671s12.939 28.671 28.843 28.671c15.902 0 28.841-12.862 28.841-28.671s-12.939-28.671-28.841-28.671zM112.569 635.597c-33.898 0-61.474 27.415-61.474 61.111s27.576 61.112 61.474 61.112 61.475-27.415 61.475-61.112c0-33.696-27.578-61.111-61.475-61.111zM895.764 909.207c33.898 0 61.474-27.413 61.474-61.111 0-33.696-27.576-61.111-61.474-61.111-33.896 0-61.474 27.415-61.474 61.111s27.578 61.111 61.474 61.111zM830.498 246.313c-26.792 0-53.152-6.89-76.45-19.956l-92.596 110.46c27.302 34.73 42.305 77.929 42.305 121.997 0 43.678-14.76 86.555-41.622 121.124l174.205 173.176c17.848-11.080 38.325-16.921 59.423-16.921 62.071 0 112.569 50.201 112.569 111.904s-50.498 111.904-112.569 111.904c-62.071 0-112.568-50.201-112.568-111.904 0-20.972 5.876-41.328 17.019-59.074l-174.204-173.173c-34.773 26.703-77.906 41.375-121.845 41.375-55.682 0-109.008-23.338-146.805-64.143l-135.48 76.96c2.163 8.746 3.258 17.702 3.258 26.667 0 61.705-50.499 111.904-112.569 111.904s-112.569-50.199-112.569-111.904c0-61.703 50.499-111.903 112.569-111.903 33.391 0 64.583 14.509 86.093 39.929l129.040-73.302c-15.141-28.414-23.126-60.352-23.126-92.619 0-43.678 14.759-86.556 41.622-121.125l-111.119-110.461c-10.973 5.42-23.181 8.274-35.487 8.274-44.078 0-79.936-35.648-79.936-79.464s35.859-79.464 79.936-79.464c44.076 0 79.935 35.647 79.935 79.464 0 12.234-2.87 24.369-8.322 35.279l111.118 110.461c34.773-26.703 77.906-41.375 121.844-41.375 44.128 0 85.817 14.016 120.808 40.573l89.252-106.469c-25.696-28.526-39.807-65.094-39.807-103.351 0-85.554 70.017-155.156 156.080-155.156s156.078 69.602 156.078 155.156c0 85.554-70.016 155.157-156.078 155.157z" />
<glyph unicode="&#xe935;" glyph-name="t28" d="M483.658 331.055c80.114 0 145.3 65.201 145.3 145.356 0 80.157-65.185 145.356-145.3 145.356-80.171 0-145.385-65.199-145.385-145.356 0-80.155 65.215-145.356 145.385-145.356zM483.658 664.069c103.439 0 187.601-84.178 187.601-187.658 0-103.482-84.162-187.658-187.601-187.658-103.498 0-187.685 84.176-187.685 187.658 0 103.48 84.187 187.658 187.685 187.658zM570.875 145.16c8.837 2.27 17.54 4.88 26.099 7.8 0.107 0.037 0.213 0.077 0.319 0.114v-44.443c-0.002-0.002-0.003-0.002-0.005-0.003v-94.666c0-11.678-9.475-21.151-21.151-21.151h-185.016c-11.675 0-21.151 9.472-21.151 21.151v94.652c-23.105 6.982-45.358 16.002-66.481 26.963l-66.536-66.538c-3.965-3.964-9.336-6.195-14.956-6.195-5.617 0-10.986 2.231-14.952 6.195l-130.759 130.789c-8.263 8.259-8.263 21.647 0 29.907l64.746 64.746c-11.982 21.799-21.842 44.643-29.442 68.244h-90.44c-11.678 0-21.151 9.475-21.151 21.151v185c0 11.678 9.472 21.151 21.151 21.151h86.723c7.214 25.268 16.881 49.572 28.808 72.556l-60.396 60.463c-8.263 8.263-8.263 21.647 0 29.906l130.759 130.816c7.929 7.932 21.977 7.932 29.908 0l58.716-58.685c23.601 12.97 48.47 23.449 74.302 31.297v82.468c0 11.678 9.475 21.152 21.151 21.152h185.016c11.675 0 21.151-9.474 21.151-21.152v-82.468c25.832-7.848 50.728-18.327 74.329-31.311l58.688 58.699c7.931 7.932 21.978 7.932 29.908 0l130.787-130.816c8.263-8.26 8.263-21.644 0-29.906l-60.451-60.463c11.955-23.027 21.622-47.315 28.836-72.556h86.723c11.677 0 21.151-9.472 21.151-21.151v-185c0-11.675-9.474-21.151-21.151-21.151h-90.441c-0.005-0.017-0.009-0.032-0.015-0.048h-44.746c3.241 8.825 6.138 17.781 8.656 26.859 2.533 9.156 10.877 15.49 20.382 15.49h85.014v142.701h-81.876c-9.778 0-18.288 6.69-20.572 16.192-7.823 32.513-20.105 63.425-36.465 91.86-4.762 8.29-3.387 18.742 3.387 25.501l56.706 56.72-100.879 100.892-55.19-55.204c-6.884-6.885-17.654-8.166-25.915-3.127-29.002 17.586-60.396 30.804-93.306 39.316-9.337 2.409-15.862 10.837-15.862 20.477v77.343h-142.714v-77.343c0-9.64-6.526-18.068-15.863-20.477-32.911-8.498-64.278-21.73-93.22-39.316-8.345-5.039-19.034-3.758-25.945 3.127l-55.246 55.219-100.849-100.907 56.65-56.72c6.773-6.76 8.151-17.211 3.387-25.501-16.332-28.38-28.587-59.293-36.435-91.86-2.287-9.502-10.796-16.192-20.572-16.192h-81.876v-142.701h85.044c9.529 0 17.845-6.348 20.38-15.53 8.481-30.694 21.204-60.136 37.811-87.511 5.069-8.33 3.774-19.044-3.112-25.928l-61.275-61.277 100.849-100.878 62.792 62.792c6.749 6.787 17.241 8.163 25.503 3.372 26.63-15.34 55.603-27.086 86.089-34.906 9.365-2.407 15.891-10.839 15.891-20.49v-89.559h142.714v89.559c0 9.652 6.525 18.083 15.888 20.49zM816.785 88.953c-29.954 0-54.322 24.364-54.322 54.31 0 29.948 24.369 54.311 54.322 54.311 29.934 0 54.287-24.364 54.287-54.311s-24.353-54.31-54.287-54.31zM816.785 227.449c-46.427 0-84.198-37.765-84.198-84.185 0-46.419 37.771-84.184 84.198-84.184 46.407 0 84.161 37.765 84.161 84.184s-37.754 84.185-84.161 84.185zM994.174 119.717h-29.215c-6.694 0-12.613-4.501-14.394-10.941-3.394-12.24-8.468-23.971-15.077-34.86-3.586-5.898-2.685-13.432 2.202-18.326l21.16-21.137-33.268-33.267-21.786 21.777c-4.77 4.761-12.177 5.738-18.008 2.378-10.598-6.099-22.123-10.774-34.26-13.892-6.605-1.7-11.218-7.649-11.218-14.47v-31.103h-47.071v31.103c0 6.821-4.613 12.772-11.222 14.471-12.147 3.115-23.675 7.788-34.249 13.881-5.854 3.393-13.272 2.41-18.030-2.373l-21.771-21.773-33.259 33.268 21.142 21.143c4.885 4.883 5.791 12.415 2.203 18.312-6.615 10.903-11.682 22.626-15.056 34.842-1.782 6.457-7.701 10.966-14.396 10.966h-29.226v47.065h27.909c6.932 0 12.907 4.704 14.526 11.436 3.129 12.984 8.009 25.29 14.508 36.583 3.359 5.846 2.373 13.254-2.389 18.005l-19.224 19.249 33.264 33.282 18.639-18.63c4.879-4.86 12.403-5.766 18.314-2.199 11.526 7.004 24.014 12.271 37.114 15.653 6.597 1.701 11.204 7.649 11.204 14.462v26.025h47.071v-26.025c0-6.813 4.607-12.761 11.201-14.462 13.12-3.393 25.621-8.66 37.145-15.647 5.895-3.599 13.429-2.693 18.317 2.2l18.61 18.616 33.271-33.274-19.238-19.242c-4.768-4.759-5.754-12.165-2.393-18.016 6.52-11.332 11.404-23.638 14.517-36.577 1.621-6.735 7.593-11.439 14.526-11.439h27.91v-47.065zM1009.112 196.656h-31.503c-2.472 7.828-5.513 15.475-9.081 22.827l22.007 22.010c2.822 2.823 4.375 6.574 4.375 10.562s-1.554 7.739-4.375 10.561l-54.393 54.404c-2.714 2.716-6.565 4.274-10.562 4.274s-7.847-1.558-10.561-4.274l-21.194-21.198c-7.595 3.904-15.515 7.24-23.644 9.953v29.811c0 8.236-6.7 14.936-14.936 14.936h-76.945c-8.236 0-14.938-6.7-14.938-14.936v-29.811c-8.112-2.71-16.029-6.043-23.63-9.95l-21.206 21.195c-2.716 2.716-6.565 4.274-10.562 4.274s-7.847-1.558-10.562-4.274l-54.379-54.404c-2.823-2.822-4.377-6.572-4.377-10.561s1.554-7.739 4.374-10.559l21.987-22.012c-3.563-7.349-6.601-14.998-9.073-22.829h-31.5c-8.236 0-14.938-6.701-14.938-14.936v-76.939c0-8.237 6.701-14.938 14.938-14.938h33.202c2.541-7.215 5.59-14.287 9.099-21.112l-23.713-23.713c-2.823-2.822-4.377-6.572-4.377-10.562s1.555-7.741 4.375-10.561l54.381-54.393c2.822-2.822 6.572-4.376 10.562-4.376s7.741 1.554 10.562 4.376l24.537 24.539c6.531-3.163 13.33-5.92 20.299-8.233v-34.87c0-8.236 6.701-14.938 14.938-14.938h76.945c8.236 0 14.936 6.701 14.936 14.938v34.874c6.968 2.309 13.763 5.065 20.289 8.227l24.548-24.537c2.822-2.822 6.572-4.376 10.561-4.376s7.741 1.554 10.562 4.376l54.391 54.391c2.782 2.782 4.377 6.631 4.377 10.562 0 3.993-1.554 7.745-4.378 10.57l-23.731 23.711c3.505 6.804 6.554 13.874 9.105 21.106h33.205c8.236 0 14.936 6.701 14.936 14.938v76.939c0 8.235-6.7 14.936-14.936 14.936z" />
<glyph unicode="&#xe936;" glyph-name="t29" d="M505.973 219.694c0.313-128.88 105.426-233.942 234.333-234.228 128.854 0.287 233.915 105.348 234.229 234.255-0.313 128.881-105.374 233.994-234.281 234.307-128.854-0.313-233.968-105.426-234.281-234.333zM45.656-18.344h538.089l-21.576 17.401c-67.101 54.161-105.609 134.568-105.609 220.662 0 10.071 0.6 20.402 1.852 31.516l1.252 10.879h-329.219v45.656h340.307l2.296 6.522c8.035 22.724 18.575 43.934 31.333 63.057l10.175 15.21h-384.111v45.656h428.984l2.687 2.166c42.16 34.073 92.851 55.231 146.621 61.153l8.714 0.965v216.175h-195.669v195.721h-476.127v-932.74zM567.387 914.683v-150.352h150.404l-150.404 150.352zM763.108 502.5l8.714-0.965c143.699-15.862 252.126-137.020 252.178-281.815-0.052-144.717-108.479-265.901-252.178-281.841l-5.635-1.879h-766.187v1024h586.667l176.441-176.389v-281.111zM130.446 522.993h502.217v45.656h-502.217v-45.656zM763.171 372.98h-45.708v-130.446h-130.446v-45.656h130.446v-130.446h45.708v130.446h130.394v45.656h-130.394v130.446z" />
<glyph unicode="&#xe937;" glyph-name="t30" horiz-adv-x="1241" d="M1154.494 179.255c50.007-14.002 86.718-60.333 86.718-115.33 0-66.088-53.011-119.662-118.403-119.662-50.87 0-94.247 32.421-111.004 77.933h-277.113c-16.758-45.512-60.135-77.933-111.004-77.933s-94.247 32.421-111.004 77.933h-283.275c-16.758-45.512-60.135-77.933-111.004-77.933-65.392 0-118.403 53.575-118.403 119.662s53.011 119.663 118.403 119.663c52.232 0 96.565-34.181 112.293-81.617h280.697c15.728 47.437 60.061 81.617 112.293 81.617s96.565-34.181 112.293-81.617h274.535c12.375 37.321 42.455 66.437 80.158 77.158v643.227c-25.387 11.066-43.134 36.385-43.134 65.848 0 39.653 32.145 71.798 71.798 71.798s71.798-32.145 71.798-71.798c0-26.881-14.772-50.311-36.641-62.616v-646.331zM1050.381 804.439v-475.922l-515.31 237.961 515.31 237.961zM118.403-17.738c44.627 0 80.804 36.562 80.804 81.663s-36.177 81.664-80.804 81.664c-44.627 0-80.804-36.562-80.804-81.664s36.177-81.663 80.804-81.663zM620.722-18.483c45.943 0 83.187 37.244 83.187 83.187s-37.244 83.187-83.187 83.187c-45.943 0-83.187-37.244-83.187-83.187s37.244-83.187 83.187-83.187z" />
<glyph unicode="&#xe938;" glyph-name="t31" d="M989.866 21.334c0-29.014-22.186-51.2-51.2-51.2h-256v307.2h170.666v204.8h-170.666v85.334c0 10.24 6.826 17.066 17.066 17.066h170.668v204.8h-189.44c-114.346-10.24-203.094-107.52-203.094-221.866v-85.334h-136.534v-204.8h136.534v-307.2h-392.532c-29.014 0-51.2 22.186-51.2 51.2v853.332c0 29.014 22.186 51.2 51.2 51.2h853.334c29.014 0 51.2-22.186 51.2-51.2v-853.332h-0.002zM512-29.866v341.332h-136.534v136.534h136.534v119.466c0 97.28 75.094 179.2 170.666 187.734h153.6v-136.534h-136.534c-29.014 0-51.2-22.186-51.2-51.2v-119.466h170.668v-136.534h-170.666v-341.334l-136.534 0.002zM938.666 960h-853.332c-47.788 0-85.334-37.546-85.334-85.334v-853.334c0-47.786 37.546-85.332 85.334-85.332h853.334c47.786 0 85.332 37.546 85.332 85.334v853.332c0 47.788-37.546 85.334-85.334 85.334z" />
<glyph unicode="&#xe939;" glyph-name="t32" d="M170.667-29.871h-136.532v204.771c0.012 9.419 7.646 17.052 17.066 17.064h102.399c9.42-0.012 17.054-7.645 17.066-17.064v-204.771h0.002zM153.601 226.093h-102.399c-28.264-0.030-51.169-22.933-51.199-51.193v-221.835c0-9.425 7.64-17.064 17.066-17.064h170.664c9.426 0 17.066 7.639 17.066 17.064v221.835c-0.030 28.26-22.934 51.161-51.197 51.193zM443.729-29.871h-136.532v443.67c0.012 9.419 7.646 17.052 17.066 17.064h102.399c9.42-0.012 17.054-7.645 17.066-17.064v-443.67h0.002zM426.663 464.992h-102.399c-28.264-0.030-51.169-22.933-51.199-51.193v-460.735c0-9.425 7.64-17.064 17.066-17.064h170.664c9.426 0 17.066 7.639 17.066 17.064v460.735c-0.030 28.262-22.934 51.163-51.197 51.193zM716.793-29.871h-136.532v341.284c0.012 9.419 7.648 17.052 17.068 17.064h102.399c9.42-0.012 17.052-7.645 17.064-17.064v-341.284h0.002zM699.728 362.606h-102.399c-28.264-0.030-51.169-22.933-51.201-51.193v-358.35c0-9.425 7.64-17.064 17.066-17.064h170.664c9.426 0 17.066 7.639 17.066 17.064v358.35c-0.026 28.262-22.932 51.163-51.195 51.193zM989.857-29.871h-136.532v477.799c0.012 9.419 7.648 17.052 17.068 17.064h102.397c9.42-0.012 17.054-7.645 17.066-17.064v-477.799h0.002zM972.791 499.121h-102.397c-28.266-0.030-51.169-22.933-51.201-51.193v-494.865c0-9.425 7.64-17.064 17.066-17.064h170.664c9.426 0 17.066 7.639 17.066 17.064v494.865c-0.030 28.26-22.932 51.163-51.197 51.193zM648.527 584.442c-37.702 0-68.265 30.56-68.265 68.256s30.564 68.256 68.265 68.256c37.704 0 68.265-30.56 68.265-68.256-0.042-37.679-30.58-68.214-68.265-68.256zM375.464 789.214c-37.702 0-68.265 30.56-68.265 68.256s30.564 68.256 68.265 68.256c37.702 0 68.265-30.56 68.265-68.256-0.042-37.679-30.582-68.214-68.265-68.256zM102.401 464.991c-37.702 0-68.265 30.56-68.265 68.256s30.564 68.256 68.265 68.256c37.702 0 68.265-30.56 68.265-68.256-0.044-37.679-30.582-68.212-68.265-68.256zM921.591 891.599c37.702 0 68.265-30.56 68.265-68.256-0.042-37.679-30.582-68.214-68.265-68.256-37.7 0-68.265 30.56-68.265 68.256s30.564 68.256 68.265 68.256zM845.15 755.449c31.266-35.187 82.507-44.51 124.165-22.589s62.987 69.43 51.679 115.122c-11.306 45.692-52.329 77.775-99.403 77.747-34.176 0.026-66.107-17.008-85.111-45.406-19.008-28.398-22.58-64.409-9.524-95.987l-101.985-63.741c-18.352 20.799-44.389 33.221-72.103 34.401s-54.711-8.989-74.761-28.154l-111.703 83.766c23.616 45.672 9.688 101.772-32.548 131.1s-99.675 22.785-134.228-15.292c-34.554-38.077-35.502-95.873-2.216-135.061l-143.082-170.012c-45.879 26.992-104.793 14.332-135.53-29.124s-23.050-103.214 17.69-137.475c40.74-34.261 100.937-31.598 138.49 6.127s39.934 97.928 5.476 138.501l143.082 170.012c39.286-23.367 89.337-17.66 122.353 13.952l111.703-83.766c-21.74-42.104-11.736-93.625 24.182-124.537s88.363-33.131 126.765-5.367c38.404 27.764 52.729 78.253 34.628 122.045l101.983 63.737z" />
<glyph unicode="&#xe93a;" glyph-name="t33" d="M862.288 316.361c7.313-5.971 11.494-14.924 11.494-24.327v-44.477h-149.55v52.238c0 19.104-8.357 37.013-23.134 49.103-12.537 10.297-25.372 19.701-37.759 28.208 0 0.299 0.148 0.596 0.148 1.044v62.686c-7.91 5.222-13.133 14.177-13.133 24.327v64.924c0 32.387 26.267 58.505 58.505 58.505h14.029c32.387 0 58.506-26.267 58.506-58.505v-64.924c0-10.15-5.224-19.105-13.133-24.327v-62.686c0-1.044 0.596-2.089 1.641-2.537 8.805-4.329 52.238-26.267 92.385-59.252zM684.084 328.301c8.507-7.015 13.433-17.463 13.433-28.507v-52.238h-371.183v52.238c0 11.044 4.923 21.491 13.432 28.507 47.312 38.805 98.206 64.625 108.654 69.7 1.194 0.596 1.939 1.79 1.939 3.135v73.58c-9.254 6.119-15.373 16.716-15.373 28.656v76.265c0 38.058 30.895 68.805 68.805 68.805h16.269c38.058 0 68.803-30.895 68.803-68.805v-76.265c0-11.94-6.119-22.537-15.373-28.656v-73.58c0-1.345 0.746-2.539 1.941-3.135 10.446-5.074 61.341-30.895 108.653-69.7zM360.511 378.151c0-0.297 0.149-0.747 0.149-1.044-12.389-8.359-25.224-17.911-37.761-28.21-14.627-12.088-23.134-29.998-23.134-49.102v-52.238h-149.548v44.477c0 9.402 4.178 18.357 11.491 24.327 40.15 32.985 83.581 54.923 92.387 59.252 1.046 0.448 1.642 1.493 1.642 2.537v62.686c-7.91 5.222-13.134 14.177-13.134 24.326v64.926c0 32.387 26.267 58.505 58.505 58.505h14.029c32.389 0 58.508-26.267 58.508-58.505v-64.926c0-10.149-5.225-19.104-13.134-24.326v-62.686zM844.007 115.993c-84.964-84.964-196.761-133.324-316.278-137.233v109.268h-31.459v-109.268c-119.519 3.909-231.315 52.27-316.279 137.233-84.962 84.964-133.323 196.761-137.233 316.278h109.268v31.459h-109.268c3.91 119.519 52.271 231.314 137.233 316.278 84.964 84.964 196.761 133.324 316.279 137.233v-109.268h31.459v109.268c119.517-3.909 231.314-52.27 316.278-137.233s133.324-196.759 137.233-316.278h-109.269v-31.459h109.269c-3.909-119.517-52.27-231.314-137.233-316.278zM874.038 810.038c-96.704 96.704-225.278 149.962-362.038 149.962s-265.336-53.257-362.038-149.962c-96.706-96.704-149.962-225.277-149.962-362.038s53.256-265.334 149.962-362.038c96.703-96.704 225.277-149.962 362.038-149.962s265.334 53.257 362.038 149.962c96.703 96.704 149.962 225.278 149.962 362.038s-53.259 265.334-149.962 362.038z" />
<glyph unicode="&#xe93b;" glyph-name="t34" d="M949.447-18.596l-274.179 274.756c2.999 2.716 5.633 5.76 8.555 8.553 3.403 3.313 6.767 6.684 10.074 10.094 2.807 2.928 5.864 5.586 8.555 8.592l274.198-274.737-27.205-27.258zM426.362 571.623c36.779-13.831 64.156-30.533 82.171-50.162 17.957-19.649 26.955-46.676 26.955-81.119 0-33.634-9.132-60.68-27.416-81.1-16.63-18.589-38.759-30.109-66.387-34.617-4.768-0.79-8.421-4.739-8.421-9.593v-39.683c0-5.432-4.383-9.824-9.786-9.824h-19.687c-5.422 0-9.805 4.392-9.805 9.824v39.702c0 4.854-3.634 8.784-8.402 9.574-27.608 4.604-50.583 16.644-68.963 36.1-20.168 21.46-29.973 53.090-29.358 94.931l0.904 1.522h49.256c5.287 0 9.478-4.334 9.709-9.632 1.173-26.256 7.344-45.366 18.514-57.348 12.497-13.446 28.243-20.15 47.238-20.15 19.591 0 34.703 6.415 45.411 19.225 10.69 12.83 16.054 29.647 16.054 50.471 0 19.225-4.806 35.040-14.4 47.465s-26.186 24.118-49.776 35.137c-37.163 13.619-64.81 30.244-82.902 49.873-18.072 19.63-27.108 46.753-27.108 81.408 0 32.844 8.767 59.679 26.378 80.502 15.957 18.917 37.298 30.822 64.003 35.695 4.691 0.848 8.248 4.758 8.248 9.555v45.578c0 5.432 4.383 9.824 9.805 9.824h19.668c5.402 0 9.786-4.392 9.786-9.824v-46.098c0-4.7 3.422-8.534 7.998-9.497 26.186-5.548 46.949-18.859 62.311-39.895 15.342-20.997 23.744-48.178 25.147-81.523 0.231-5.529-4.383-10.229-9.921-10.229h-41.335c-5.249 0-9.382 4.296-9.651 9.555-1.096 21.652-6.018 39.394-14.746 53.225-9.997 15.815-23.878 23.733-41.682 23.733-18.591 0-32.376-6.473-41.374-19.379-8.998-12.926-13.497-29.801-13.497-50.605 0-19.649 4.595-35.406 13.785-47.331 9.209-11.905 26.301-23.675 51.275-35.291zM304.076 202.743c-122.43 32.69-219.732 130.183-252.358 252.854-74.058 278.474 173.763 526.782 451.691 452.578 122.43-32.69 219.732-130.183 252.358-252.854 74.058-278.493-173.743-526.782-451.691-452.578zM1019.025 20.683l-292.386 292.96c70.213 93.891 101.435 218.68 66.406 350.674-36.221 136.598-144.136 245.399-280.543 281.364-306.171 80.695-578.735-192.424-498.217-499.196 35.895-136.694 144.501-244.801 280.812-281.094 131.735-35.098 256.28-3.814 349.986 66.536l288.944-289.512c8.536-8.553 22.34-8.553 30.877 0l54.121 54.227c6.633 6.646 6.633 17.395 0 24.041z" />
<glyph unicode="&#xe93c;" glyph-name="t35" d="M907.64 806.388c7.821-7.816 7.819-20.49 0-28.308-3.908-3.908-9.033-5.864-14.155-5.864s-10.243 1.954-14.153 5.864l-72.973 72.968c-7.819 7.816-7.817 20.492 0 28.308s20.491 7.816 28.312 0l72.969-72.968zM930.589 775.154c-25.762 0-25.804-40.036 0-40.036 25.764 0 25.804 40.036 0 40.036zM968.879 726.756l-46.119-46.118-88.93 88.934c-0.032 0.032-0.060 0.068-0.090 0.102-0.034 0.034-0.070 0.060-0.104 0.092l-88.94 88.942 46.127 46.108c9.761 9.768 22.746 15.15 36.555 15.15 13.811 0 26.794-5.38 36.565-15.158l104.934-104.904c20.155-20.168 20.155-52.984 0.004-73.148zM301.927 59.872l-74.867 74.862 592.515 592.47 74.871-74.874-592.519-592.458zM166.955 16.118l-86.832 86.826 25.808 96.29 78.646-78.64c0.004-0.004 0.008-0.010 0.014-0.016s0.010-0.008 0.016-0.014l78.648-78.642-96.299-25.804zM48.332-15.67l19.823 73.964 54.144-54.142-73.967-19.822zM716.379 830.402l74.883-74.884-592.513-592.47-74.887 74.878 592.517 592.476zM997.185 828.208l-104.934 104.906c-17.323 17.338-40.363 26.886-64.875 26.886s-47.551-9.548-64.873-26.88l-681.111-681.040c-2.688-2.69-4.434-5.964-5.272-9.412l-75.437-281.468c-1.852-6.906 0.124-14.278 5.18-19.338 3.804-3.802 8.917-5.862 14.155-5.862 1.728 0 3.47 0.224 5.18 0.682l281.908 75.546c0.058 0.016 0.11 0.042 0.168 0.056 0.784 0.216 1.56 0.474 2.318 0.788 0.052 0.022 0.1 0.050 0.15 0.070 0.676 0.286 1.338 0.62 1.986 0.986 0.18 0.1 0.356 0.206 0.532 0.312 0.52 0.314 1.026 0.656 1.524 1.024 0.168 0.122 0.34 0.24 0.502 0.368 0.618 0.486 1.222 1.002 1.79 1.574l620.821 620.756c0.004 0.004 0.010 0.006 0.012 0.010l60.278 60.278c35.749 35.776 35.749 93.98-0.004 129.758z" />
<glyph unicode="&#xe93d;" glyph-name="t22" d="M723.631 171.271c-9.206-11.66-19.727-16.696-31.163-16.776h-379.535c-11.435 0.080-21.973 5.116-31.179 16.776-7.779 10.024-12.093 22.983-12.093 36.327 0 5.18 0.658 10.425 1.989 15.541 13.953 53.857 39.647 89.671 67.265 114.483 27.586 24.763 57.434 38.268 78.893 45.341 30.473 10.088 51.018 38.557 50.986 70.649 0.032 16.167-5.437 31.868-15.188 44.892-22.438 29.816-37.739 75.237-37.53 110.553-0.016 30.393 10.457 57.642 26.544 76.776 16.215 19.182 37.289 30.056 60.080 30.072 22.791-0.016 43.849-10.89 60.064-30.072 16.119-19.134 26.592-46.383 26.56-76.776 0.225-35.317-15.060-80.738-37.53-110.537-9.751-13.023-15.237-28.741-15.204-44.908-0.032-32.077 20.513-60.561 51.018-70.633 21.443-7.089 51.275-20.593 78.877-45.357 27.602-24.828 53.296-60.641 67.281-114.483 1.315-5.1 1.957-10.345 1.957-15.541 0.016-13.328-4.314-26.303-12.093-36.327zM692.709 366.876c-32.815 29.382-67.618 45.068-92.767 53.392-14.435 4.796-24.058 18.123-24.074 33.344 0.016 7.426 2.39 14.659 7.41 21.427 27.875 37.755 45.116 88.372 45.325 134.018-0.016 39.358-13.392 75.381-35.75 102.037-22.277 26.624-54.354 44.122-90.152 44.106-35.814 0.016-67.891-17.482-90.152-44.106-22.374-26.672-35.734-62.678-35.75-102.037 0.225-45.646 17.45-96.263 45.309-134.034 5.020-6.736 7.394-13.986 7.41-21.411-0.016-15.237-9.623-28.548-24.042-33.36-25.164-8.308-59.968-23.994-92.783-53.376-32.815-29.318-63.304-72.59-79.086-133.905-2.149-8.388-3.208-16.921-3.208-25.373 0-21.684 6.897-43.031 20.305-60.385 15.172-19.808 37.803-32.109 62.229-32.013h379.535c24.411-0.096 47.041 12.205 62.213 32.013 13.408 17.354 20.321 38.701 20.321 60.385 0 8.452-1.043 16.985-3.192 25.357-15.782 61.315-46.303 104.603-79.102 133.921zM512 896c-247.424 0-448-200.576-448-448s200.576-448 448-448c247.424 0 448 200.576 448 448s-200.576 448-448 448zM512 960c282.77 0 512-229.23 512-512s-229.23-512-512-512c-282.77 0-512 229.23-512 512s229.23 512 512 512z" />
</font>
</defs>
</svg>
